<svg viewBox="0 0 512 512" xmlns="http://www.w3.org/2000/svg"><path d="m88 136h-16v-24a48 48 0 0 1 96 0v8h-16v-8a32 32 0 0 0 -64 0z" fill="#cbcbcb"/><path d="m452 424h-68a8 8 0 0 1 0-16h68a28 28 0 0 0 0-56h-92a8 8 0 0 1 0-16h92a44 44 0 0 1 0 88z" fill="#cbcbcb"/><rect fill="#d18d28" height="344" rx="12" width="256" x="120" y="112"/><path d="m292 96h-28v-16a16 16 0 0 0 -32 0v16h-28a12 12 0 0 0 -12 12v36h112v-36a12 12 0 0 0 -12-12z" fill="#c1e3f7"/><path d="m152 144h192v280h-192z" fill="#e4e4e2"/><g fill="#cbcbcb"><path d="m184 280h32v32h-32z"/><path d="m184 344h32v32h-32z"/><path d="m240 240h80v16h-80z"/><path d="m240 288h24v16h-24z"/><path d="m280 288h40v16h-40z"/><path d="m240 368h40v16h-40z"/><path d="m240 336h48v16h-48z"/><path d="m304 336h16v16h-16z"/></g><path d="m200 256a8 8 0 0 1 -5.657-2.343l-16-16a8 8 0 0 1 11.314-11.314l9.477 9.477 18.466-24.62a8 8 0 1 1 12.8 9.6l-24 32a8 8 0 0 1 -5.833 3.179q-.285.021-.567.021z" fill="#f55648"/><path d="m264 176h-8v-8h-16v8h-8v16h8v8h16v-8h8z" fill="#029532"/><path d="m64 336a32.036 32.036 0 0 1 -32-32v-48a8 8 0 0 1 16 0v48a16.019 16.019 0 0 0 16 16 8 8 0 0 1 0 16z" fill="#e4e4e2"/><path d="m96 336a8 8 0 0 1 0-16 16.019 16.019 0 0 0 16-16v-48a8 8 0 0 1 16 0v48a32.036 32.036 0 0 1 -32 32z" fill="#e4e4e2"/><path d="m96 170.332v-34.332h-32v34.332a56.04 56.04 0 0 0 -40 53.668v32h32v-32a24 24 0 0 1 48 0v32h32v-32a56.016 56.016 0 0 0 -40-53.668z" fill="#007af6"/><circle cx="360" cy="416" fill="#007af6" r="40"/><circle cx="360" cy="416" fill="#8ed2ff" r="16"/><path d="m192 144h112v16h-112z" fill="#cbcbcb"/><path d="m216 272h-32a8 8 0 0 0 -8 8v32a8 8 0 0 0 8 8h32a8 8 0 0 0 8-8v-32a8 8 0 0 0 -8-8zm-8 32h-16v-16h16z"/><path d="m216 336h-32a8 8 0 0 0 -8 8v32a8 8 0 0 0 8 8h32a8 8 0 0 0 8-8v-32a8 8 0 0 0 -8-8zm-8 32h-16v-16h16z"/><path d="m240 240h80v16h-80z"/><path d="m240 288h24v16h-24z"/><path d="m280 288h40v16h-40z"/><path d="m240 368h40v16h-40z"/><path d="m240 336h48v16h-48z"/><path d="m304 336h16v16h-16z"/><path d="m228.8 209.6a8 8 0 0 0 -11.2 1.6l-18.466 24.62-9.477-9.477a8 8 0 0 0 -11.314 11.314l16 16a8 8 0 0 0 5.657 2.343q.282 0 .567-.021a8 8 0 0 0 5.833-3.179l24-32a8 8 0 0 0 -1.6-11.2z"/><path d="m240 200h16v-8h8v-16h-8v-8h-16v8h-8v16h8z"/><path d="m452 336h-68v-212a20.023 20.023 0 0 0 -20-20h-52.4a20.033 20.033 0 0 0 -19.6-16h-20v-8a24 24 0 0 0 -48 0v8h-20a20.033 20.033 0 0 0 -19.6 16h-17.079a48 48 0 0 0 -95.321 8v16h-8a8 8 0 0 0 -8 8v28.667a64.065 64.065 0 0 0 -40 59.333v32a8 8 0 0 0 8 8h8v40a32.036 32.036 0 0 0 32 32 8 8 0 0 0 0-16 16.019 16.019 0 0 1 -16-16v-40h8a8 8 0 0 0 8-8v-32a16 16 0 0 1 32 0v32a8 8 0 0 0 8 8h8v40a16.019 16.019 0 0 1 -16 16 8 8 0 0 0 0 16 31.793 31.793 0 0 0 16-4.305v112.305a20.023 20.023 0 0 0 20 20h232v-.18a48.079 48.079 0 0 0 43.327-39.854c.222.019.446.034.673.034h44a44 44 0 0 0 0-88zm-84-212v244.679a47.468 47.468 0 0 0 -16 0v-224.679a8 8 0 0 0 -8-8h-32v-16h52a4 4 0 0 1 4 4zm-56 292h-152v-264h176v222.458a48.014 48.014 0 0 0 -24 41.542zm-128-296v16h-32a8 8 0 0 0 -8 8v80a64.126 64.126 0 0 0 -16-42.183v-57.817a4 4 0 0 1 4-4zm16-12a4 4 0 0 1 4-4h28a8 8 0 0 0 8-8v-16a8 8 0 0 1 16 0v16a8 8 0 0 0 8 8h28a4 4 0 0 1 4 4v28h-96zm-112 4a32 32 0 0 1 62.987-8h-18.987a20.023 20.023 0 0 0 -20 20v44.611a63.165 63.165 0 0 0 -8-3.939v-28.672a8 8 0 0 0 -8-8h-8zm-8 80a32.036 32.036 0 0 0 -32 32v24h-16v-24a48.044 48.044 0 0 1 34.283-46 8 8 0 0 0 5.717-7.668v-26.332h16v26.332a8 8 0 0 0 5.717 7.668 48.284 48.284 0 0 1 34.283 46v24h-16v-24a32.036 32.036 0 0 0 -32-32zm48 252v-180h8a8 8 0 0 0 8-8v168a8 8 0 0 0 8 8h162.752a48.044 48.044 0 0 0 9.509 16h-192.261a4 4 0 0 1 -4-4zm232 4a32 32 0 1 1 32-32 32.036 32.036 0 0 1 -32 32zm92-40h-44c-.227 0-.451.015-.673.034a48.106 48.106 0 0 0 -23.327-33.576v-22.458h68a28 28 0 0 1 0 56z"/><circle cx="360" cy="416" r="16"/></svg>