<svg viewBox="0 0 400 300" xmlns="http://www.w3.org/2000/svg"><path d="m97.39 86.71h205.22a0 0 0 0 1 0 0v125.92a5.2 5.2 0 0 1 -5.2 5.2h-194.81a5.2 5.2 0 0 1 -5.2-5.2v-125.92a0 0 0 0 1 -.01 0z" fill="#f7f7f7"/><path d="m297.4 218.84h-194.8a6.22 6.22 0 0 1 -6.21-6.21v-125.92a1 1 0 0 1 1-1h205.22a1 1 0 0 1 1 1v125.92a6.22 6.22 0 0 1 -6.21 6.21zm-199.01-131.13v124.92a4.22 4.22 0 0 0 4.21 4.21h194.8a4.22 4.22 0 0 0 4.21-4.21v-124.92z" fill="#093f68"/><path d="m273.8 147.82a5.17 5.17 0 0 1 0 8c-10.46 9.6-39.55 33.09-73.8 33.09s-63.34-23.49-73.8-33.09a5.17 5.17 0 0 1 0-8c10.46-9.6 39.55-33.09 73.8-33.09s63.34 23.49 73.8 33.09z" fill="#f7f7f7"/><path d="m200 189.93c-34.42 0-63.55-23.32-74.47-33.35a6.16 6.16 0 0 1 0-9.5c10.92-10 40.05-33.35 74.47-33.35s63.55 23.33 74.47 33.35a6.16 6.16 0 0 1 0 9.5c-10.92 10.03-40.05 33.35-74.47 33.35zm0-74.2c-33.72 0-62.37 23-73.12 32.83a4.17 4.17 0 0 0 0 6.55c10.75 9.87 39.4 32.82 73.12 32.82s62.37-23 73.12-32.82a4.17 4.17 0 0 0 0-6.55c-10.75-9.87-39.4-32.83-73.12-32.83z" fill="#093f68"/><circle cx="200" cy="151.83" fill="#68e1fd" r="37.1"/><path d="m200 189.93a38.1 38.1 0 1 1 38.1-38.1 38.14 38.14 0 0 1 -38.1 38.1zm0-74.2a36.1 36.1 0 1 0 36.1 36.1 36.14 36.14 0 0 0 -36.1-36.1z" fill="#093f68"/><circle cx="200" cy="151.83" fill="#093f68" r="18.1"/><path d="m200 170.93a19.1 19.1 0 1 1 19.1-19.1 19.12 19.12 0 0 1 -19.1 19.1zm0-36.2a17.1 17.1 0 1 0 17.1 17.1 17.12 17.12 0 0 0 -17.1-17.1z" fill="#093f68"/><circle cx="211.39" cy="165.1" fill="#f7f7f7" r="7.88"/><path d="m211.39 174a8.88 8.88 0 1 1 8.87-8.87 8.88 8.88 0 0 1 -8.87 8.87zm0-15.75a6.88 6.88 0 1 0 6.87 6.88 6.89 6.89 0 0 0 -6.87-6.91z" fill="#093f68"/><path d="m102.6 72.59h194.8a5.2 5.2 0 0 1 5.2 5.2v9.84a0 0 0 0 1 0 0h-205.21a0 0 0 0 1 0 0v-9.83a5.2 5.2 0 0 1 5.21-5.21z" fill="#68e1fd"/><path d="m302.61 88.64h-205.22a1 1 0 0 1 -1-1v-9.84a6.22 6.22 0 0 1 6.21-6.21h194.8a6.22 6.22 0 0 1 6.21 6.21v9.84a1 1 0 0 1 -1 1zm-204.22-2h203.22v-8.84a4.22 4.22 0 0 0 -4.21-4.21h-194.8a4.22 4.22 0 0 0 -4.21 4.21z" fill="#093f68"/><circle cx="295.71" cy="120.02" fill="#f7f7f7" r="26.99"/><path d="m295.71 148a28 28 0 1 1 28-28 28 28 0 0 1 -28 28zm0-54a26 26 0 1 0 26 26 26 26 0 0 0 -26-26z" fill="#093f68"/><path d="m295.71 120h27a27 27 0 1 1 -16.25-24.77z" fill="#ffbc0e"/><path d="m295.71 148a28 28 0 1 1 11.13-53.67 1 1 0 0 1 .54.55 1 1 0 0 1 0 .76l-10.14 23.36h25.46a1 1 0 0 1 1 1 28 28 0 0 1 -27.99 28zm0-54a26 26 0 1 0 26 27h-26a1 1 0 0 1 -.92-1.4l10.33-23.83a25.77 25.77 0 0 0 -9.41-1.77z" fill="#093f68"/><path d="m108.65 189.65h62.44v39.76h-62.44z" fill="#70cc40"/><path d="m171.08 230.41h-62.43a1 1 0 0 1 -1-1v-39.76a1 1 0 0 1 1-1h62.43a1 1 0 0 1 1 1v39.76a1 1 0 0 1 -1 1zm-61.43-2h60.43v-37.76h-60.43z" fill="#093f68"/><path d="m164.52 222.2h-45.28a1 1 0 0 1 -1-1v-22.9a1 1 0 0 1 2 0v21.9h44.28a1 1 0 1 1 0 2z" fill="#093f68"/><path d="m127.07 210.53h5.88v10.68h-5.88z" fill="#f7f7f7"/><path d="m133 222.2h-5.88a1 1 0 0 1 -1-1v-10.67a1 1 0 0 1 1-1h5.88a1 1 0 0 1 1 1v10.67a1 1 0 0 1 -1 1zm-4.88-2h3.88v-8.67h-3.88z" fill="#093f68"/><path d="m139.86 207.5h5.88v13.7h-5.88z" fill="#f7f7f7"/><path d="m145.75 222.2h-5.89a1 1 0 0 1 -1-1v-13.7a1 1 0 0 1 1-1h5.89a1 1 0 0 1 1 1v13.7a1 1 0 0 1 -1 1zm-4.89-2h3.89v-11.7h-3.89z" fill="#093f68"/><path d="m152.66 198.3h5.88v22.9h-5.88z" fill="#f7f7f7"/><path d="m158.54 222.2h-5.88a1 1 0 0 1 -1-1v-22.9a1 1 0 0 1 1-1h5.88a1 1 0 0 1 1 1v22.9a1 1 0 0 1 -1 1zm-4.88-2h3.88v-20.9h-3.88z" fill="#093f68"/><path d="m254.42 175.61h58.64v33.92h-58.64z" fill="#f56132"/><path d="m313.05 210.53h-58.63a1 1 0 0 1 -1-1v-33.92a1 1 0 0 1 1-1h58.63a1 1 0 0 1 1 1v33.92a1 1 0 0 1 -1 1zm-57.63-2h56.63v-31.92h-56.63z" fill="#093f68"/><path d="m264.63 199.63a1 1 0 0 1 -.77-.36 1 1 0 0 1 .13-1.41l14.74-12.25a1 1 0 0 1 1.25 0l12.1 9.31 12.62-10.35a1 1 0 0 1 1.27 1.54l-13.24 10.89a1 1 0 0 1 -1.24 0l-12.1-9.31-14.12 11.71a1 1 0 0 1 -.64.23z" fill="#093f68"/><circle cx="264.63" cy="198.63" fill="#f7f7f7" r="3.61"/><path d="m264.63 203.24a4.62 4.62 0 1 1 4.62-4.61 4.62 4.62 0 0 1 -4.62 4.61zm0-7.23a2.62 2.62 0 1 0 2.62 2.62 2.62 2.62 0 0 0 -2.62-2.63z" fill="#093f68"/><circle cx="279.37" cy="186.38" fill="#f7f7f7" r="3.61"/><path d="m279.37 191a4.61 4.61 0 1 1 4.61-4.61 4.62 4.62 0 0 1 -4.61 4.61zm0-7.22a2.61 2.61 0 1 0 2.61 2.61 2.62 2.62 0 0 0 -2.61-2.62z" fill="#093f68"/><circle cx="292.1" cy="196.18" fill="#f7f7f7" r="3.61"/><path d="m292.1 200.8a4.62 4.62 0 1 1 4.61-4.62 4.61 4.61 0 0 1 -4.61 4.62zm0-7.23a2.62 2.62 0 1 0 2.61 2.61 2.61 2.61 0 0 0 -2.61-2.61z" fill="#093f68"/><circle cx="305.33" cy="185.32" fill="#f7f7f7" r="3.61"/><path d="m305.33 189.93a4.61 4.61 0 1 1 4.61-4.61 4.62 4.62 0 0 1 -4.61 4.61zm0-7.22a2.61 2.61 0 1 0 2.61 2.61 2.61 2.61 0 0 0 -2.61-2.61z" fill="#093f68"/><circle cx="109.22" cy="80.1" fill="#093f68" r="2.94"/><circle cx="119.46" cy="80.1" fill="#093f68" r="2.94"/><circle cx="129.7" cy="80.1" fill="#093f68" r="2.94"/><rect fill="#f7f7f7" height="35.9" rx="4.52" width="46.4" x="90.93" y="95.35"/><path d="m132.82 132.25h-37.37a5.53 5.53 0 0 1 -5.52-5.52v-26.87a5.52 5.52 0 0 1 5.52-5.51h37.37a5.51 5.51 0 0 1 5.51 5.51v26.87a5.52 5.52 0 0 1 -5.51 5.52zm-37.37-35.9a3.52 3.52 0 0 0 -3.52 3.51v26.87a3.53 3.53 0 0 0 3.52 3.52h37.37a3.52 3.52 0 0 0 3.51-3.52v-26.87a3.51 3.51 0 0 0 -3.51-3.51z" fill="#093f68"/><path d="m130.71 125.63h-32.71a1 1 0 0 1 -1-1v-21.81a1 1 0 0 1 2 0v20.81h31.74a1 1 0 0 1 0 2z" fill="#dfeaef"/><path d="m100.83 120c1.91-3.79 3.87-7.9 7.26-10.33a6.6 6.6 0 0 1 6-1.19c2.66 1 4.76 4 7.86 2.67a13.3 13.3 0 0 0 6.61-7.46" fill="#f7f7f7"/><path d="m100.83 121a1.06 1.06 0 0 1 -.45-.11 1 1 0 0 1 -.44-1.34l.27-.55c1.9-3.78 3.87-7.69 7.3-10.15a7.51 7.51 0 0 1 6.91-1.31 13.39 13.39 0 0 1 2.68 1.46c1.77 1.17 2.93 1.86 4.45 1.21 2.89-1.23 5.13-4.34 6.07-6.88a1 1 0 1 1 1.87.68 14.24 14.24 0 0 1 -7.16 8c-2.59 1.1-4.58-.21-6.34-1.38a11.47 11.47 0 0 0 -2.26-1.27 5.56 5.56 0 0 0 -5 1.06c-3 2.17-4.89 5.86-6.68 9.42l-.28.55a1 1 0 0 1 -.94.61z" fill="#093f68"/><g fill="#dfeaef"><path d="m123 162.1h-13.78a1 1 0 0 1 0-2h13.78a1 1 0 0 1 0 2z"/><path d="m128.41 170.93h-19.19a1 1 0 1 1 0-2h19.19a1 1 0 1 1 0 2z"/><path d="m136.86 179.77h-27.64a1 1 0 0 1 0-2h27.64a1 1 0 0 1 0 2z"/><path d="m258.5 98.58h-101.5a1 1 0 0 1 0-2h101.5a1 1 0 0 1 0 2z"/><path d="m258.5 108.59h-70.69a1 1 0 0 1 0-2h70.69a1 1 0 0 1 0 2z"/><path d="m243.29 210.53h-61.39a1 1 0 0 1 -1-1v-12.73a1 1 0 0 1 1-1h61.39a1 1 0 0 1 1 1v12.73a1 1 0 0 1 -1 1zm-60.39-2h59.39v-10.73h-59.39z"/><path d="m203.51 210.75a1 1 0 0 1 -1-1v-12.95a1 1 0 0 1 2 0v12.95a1 1 0 0 1 -1 1z"/><path d="m235.18 210.75a1 1 0 0 1 -1-1v-12.95a1 1 0 0 1 2 0v12.95a1 1 0 0 1 -1 1z"/></g></svg>