<svg viewBox="0 0 400 300" xmlns="http://www.w3.org/2000/svg"><path d="m148.14 86.93h99.48v134.04h-99.48z" fill="#68e1fd"/><path d="m247.63 222h-99.49a1 1 0 0 1 -1-1v-134a1 1 0 0 1 1-1h99.49a1 1 0 0 1 1 1v134a1 1 0 0 1 -1 1zm-98.49-2h97.49v-132h-97.49z" fill="#093f68"/><path d="m155.65 79.14h99.48v134.04h-99.48z" fill="#fff"/><path d="m255.14 214.18h-99.49a1 1 0 0 1 -1-1v-134a1 1 0 0 1 1-1h99.49a1 1 0 0 1 1 1v134a1 1 0 0 1 -1 1zm-98.49-2h97.49v-132h-97.49z" fill="#093f68"/><path d="m177.36 129.34a1 1 0 0 1 -.67-1.74l17.95-16a1 1 0 0 1 1.07-.16l16.4 7.44 20.64-19.18a1 1 0 0 1 1.36 1.47l-21.11 19.66a1 1 0 0 1 -1.09.18l-16.41-7.44-17.5 15.52a1 1 0 0 1 -.64.25z" fill="#093f68"/><circle cx="212.15" cy="120.18" fill="#68e1fd" r="4.16"/><path d="m212.15 125.33a5.16 5.16 0 1 1 5.16-5.15 5.16 5.16 0 0 1 -5.16 5.15zm0-8.31a3.16 3.16 0 1 0 3.16 3.16 3.16 3.16 0 0 0 -3.16-3.18z" fill="#093f68"/><circle cx="195.3" cy="112.39" fill="#68e1fd" r="4.16"/><path d="m195.3 117.54a5.16 5.16 0 1 1 5.16-5.15 5.16 5.16 0 0 1 -5.16 5.15zm0-8.31a3.16 3.16 0 1 0 3.16 3.16 3.17 3.17 0 0 0 -3.16-3.16z" fill="#093f68"/><circle cx="233.43" cy="101.04" fill="#68e1fd" r="4.16"/><path d="m233.43 106.2a5.16 5.16 0 1 1 5.16-5.16 5.17 5.17 0 0 1 -5.16 5.16zm0-8.32a3.16 3.16 0 1 0 3.16 3.16 3.17 3.17 0 0 0 -3.16-3.16z" fill="#093f68"/><circle cx="177.36" cy="128.34" fill="#68e1fd" r="4.16"/><path d="m177.36 133.5a5.16 5.16 0 1 1 5.16-5.16 5.16 5.16 0 0 1 -5.16 5.16zm0-8.31a3.16 3.16 0 1 0 3.16 3.15 3.16 3.16 0 0 0 -3.16-3.15z" fill="#093f68"/><path d="m244.62 143.59h-78.46a1 1 0 0 1 -1-1v-50.52a1 1 0 0 1 2 0v49.52h77.46a1 1 0 0 1 0 2z" fill="#dfeaef"/><path d="m211.56 178a22.7 22.7 0 1 1 -22.7-22.71 22.52 22.52 0 0 1 22.7 22.71z" fill="#68e1fd"/><path d="m188.86 201.65a23.71 23.71 0 1 1 23.7-23.7 23.72 23.72 0 0 1 -23.7 23.7zm0-45.41a21.71 21.71 0 0 0 0 43.41 21.3 21.3 0 0 0 6.78-1.09 21.54 21.54 0 0 0 9.5-6.27 21.25 21.25 0 0 0 3.94-6.46 21.71 21.71 0 0 0 -20.22-29.59z" fill="#093f68"/><path d="m211.56 178a22.68 22.68 0 0 1 -5.67 15l-17-15v-22.76a22.7 22.7 0 0 1 22.67 22.76z" fill="#fff"/><path d="m205.89 194a1 1 0 0 1 -.66-.25l-17-15a1 1 0 0 1 -.34-.75v-22.76a1 1 0 0 1 1-1 23.73 23.73 0 0 1 23.67 23.76 23.71 23.71 0 0 1 -5.92 15.67 1 1 0 0 1 -.75.33zm-16-16.45 15.93 14a21.33 21.33 0 0 0 3.29-5.7 21.71 21.71 0 0 0 -19.22-29.56z" fill="#093f68"/><path d="m210 186.19a22.73 22.73 0 0 1 -14 13.32l-7.14-21.51z" fill="#fff"/><path d="m196 200.51a1 1 0 0 1 -.95-.68l-7.09-21.56a1 1 0 0 1 1.32-1.25l21.15 8.24a1 1 0 0 1 .57 1.3 23.74 23.74 0 0 1 -14.69 13.9.81.81 0 0 1 -.31.05zm-5.47-20.85 6.1 18.57a21.57 21.57 0 0 0 8.56-5.94 21.31 21.31 0 0 0 3.56-5.54z" fill="#093f68"/><path d="m130.35 151.95h7.36v27.04h-7.36z" fill="#093f68"/><path d="m137.71 180h-7.36a1 1 0 0 1 -1-1v-27a1 1 0 0 1 1-1h7.36a1 1 0 0 1 1 1v27a1 1 0 0 1 -1 1zm-6.36-2h5.36v-25h-5.36z" fill="#093f68"/><rect fill="#ffbc0e" height="45.51" rx="3.34" width="10.11" x="128.97" y="175.35"/><path d="m135.74 221.86h-3.42a4.35 4.35 0 0 1 -4.35-4.35v-38.82a4.34 4.34 0 0 1 4.35-4.34h3.42a4.34 4.34 0 0 1 4.34 4.34v38.82a4.35 4.35 0 0 1 -4.34 4.35zm-3.42-45.51a2.35 2.35 0 0 0 -2.35 2.34v38.82a2.35 2.35 0 0 0 2.35 2.35h3.42a2.35 2.35 0 0 0 2.34-2.35v-38.82a2.34 2.34 0 0 0 -2.34-2.34z" fill="#093f68"/><circle cx="133.58" cy="140.49" fill="#ffbc0e" r="24.16"/><path d="m133.58 165.65a25.16 25.16 0 1 1 25.15-25.16 25.18 25.18 0 0 1 -25.15 25.16zm0-48.31a23.16 23.16 0 1 0 23.15 23.15 23.18 23.18 0 0 0 -23.15-23.15z" fill="#093f68"/><circle cx="133.58" cy="140.49" fill="#fff" r="17.08"/><path d="m133.58 158.58a18.09 18.09 0 1 1 18.08-18.09 18.12 18.12 0 0 1 -18.08 18.09zm0-34.17a16.09 16.09 0 1 0 16.08 16.08 16.11 16.11 0 0 0 -16.08-16.08z" fill="#093f68"/><path d="m123.56 146.59a1 1 0 0 1 -.7-.29 1 1 0 0 1 0-1.42l10.81-10.82a1 1 0 1 1 1.42 1.42l-10.82 10.82a1 1 0 0 1 -.71.29z" fill="#dfeaef"/><path d="m133.65 150.67a1 1 0 0 1 -.7-.29 1 1 0 0 1 0-1.42l8.1-8.16a1 1 0 0 1 1.42 0 1 1 0 0 1 0 1.41l-8.11 8.16a1 1 0 0 1 -.71.3z" fill="#dfeaef"/><path d="m262.15 143.24h8.47v61.1h-8.47z" fill="#f56132"/><path d="m270.62 205.34h-8.47a1 1 0 0 1 -1-1v-61.1a1 1 0 0 1 1-1h8.47a1 1 0 0 1 1 1v61.1a1 1 0 0 1 -1 1zm-7.47-2h6.47v-59.1h-6.47z" fill="#093f68"/><path d="m267.08 215.35 3.55-11.01h-8.48l3.55 11.01z" fill="#f56132"/><path d="m267.08 216.35h-1.38a1 1 0 0 1 -1-.7l-3.54-11a1 1 0 0 1 .14-.89 1 1 0 0 1 .81-.41h8.47a1 1 0 0 1 .81.41 1 1 0 0 1 .15.89l-3.55 11a1 1 0 0 1 -.91.7zm-3.56-11 2.87 8.9 2.86-8.9z" fill="#093f68"/><path d="m265.7 215.35h1.38a0 0 0 0 1 0 0v3.72a.69.69 0 0 1 -.69.69.69.69 0 0 1 -.69-.69v-3.72a0 0 0 0 1 0 0z" fill="#68e1fd"/><path d="m266.39 220.76a1.69 1.69 0 0 1 -1.69-1.69v-3.72a1 1 0 0 1 1-1h1.38a1 1 0 0 1 1 1v3.72a1.69 1.69 0 0 1 -1.69 1.69z" fill="#093f68"/><path d="m263.33 139.53h6.07a2.61 2.61 0 0 1 2.61 2.61v34.46a0 0 0 0 1 0 0h-11.29a0 0 0 0 1 0 0v-34.46a2.61 2.61 0 0 1 2.61-2.61z" fill="#f56132"/><path d="m272 177.6h-11.28a1 1 0 0 1 -1-1v-34.46a3.61 3.61 0 0 1 3.61-3.61h6.06a3.61 3.61 0 0 1 3.61 3.61v34.46a1 1 0 0 1 -1 1zm-10.28-2h9.28v-33.46a1.62 1.62 0 0 0 -1.61-1.61h-6.06a1.62 1.62 0 0 0 -1.61 1.61z" fill="#093f68"/><path d="m275.2 170a1 1 0 0 1 -.71-.3c-3.28-3.29-1.39-10 .27-16 .79-2.82 1.6-5.73 1.33-6.89-.24-1-.69-1.21-.84-1.27a3.83 3.83 0 0 0 -2.74.53 1 1 0 1 1 -1-1.72c.26-.15 2.59-1.48 4.54-.65a3.57 3.57 0 0 1 2 2.65c.39 1.66-.38 4.41-1.35 7.89-1.44 5.14-3.24 11.54-.78 14a1 1 0 0 1 0 1.42 1 1 0 0 1 -.72.34z" fill="#093f68"/><g fill="#dfeaef"><path d="m241.51 159.24h-15.68a1 1 0 0 1 0-2h15.68a1 1 0 0 1 0 2z"/><path d="m241.51 168.79h-20.28a1 1 0 0 1 0-2h20.28a1 1 0 0 1 0 2z"/><path d="m241.51 178.35h-5.82a1 1 0 0 1 0-2h5.82a1 1 0 0 1 0 2z"/><path d="m227.05 178.35h-5.82a1 1 0 0 1 0-2h5.82a1 1 0 0 1 0 2z"/><path d="m241.51 187.9h-20.28a1 1 0 0 1 0-2h20.28a1 1 0 0 1 0 2z"/><path d="m230.43 197.45h-9.2a1 1 0 1 1 0-2h9.2a1 1 0 0 1 0 2z"/></g><path d="m229.51 130.41h43.17v-46.81zm36.17-7.24h-19.89l19.89-21.57z" fill="#70cc40"/><path d="m272.68 131.41h-43.17a1 1 0 0 1 -.92-.6 1 1 0 0 1 .18-1.07l43.17-46.81a1 1 0 0 1 1.1-.26 1 1 0 0 1 .64.93v46.81a1 1 0 0 1 -1 1zm-40.89-2h39.89v-43.25zm33.89-5.24h-19.89a1 1 0 0 1 -.74-1.67l19.89-21.57a1 1 0 0 1 1.1-.26 1 1 0 0 1 .64.93v21.57a1 1 0 0 1 -1 1zm-17.61-2h16.61v-18z" fill="#093f68"/><path d="m195.3 93.07h-13.78a1 1 0 0 1 0-2h13.78a1 1 0 0 1 0 2z" fill="#dfeaef"/><path d="m186.23 100h-4.71a1 1 0 0 1 0-2h4.71a1 1 0 0 1 0 2z" fill="#dfeaef"/><path d="m210 93.07h-4.62a1 1 0 0 1 0-2h4.62a1 1 0 0 1 0 2z" fill="#dfeaef"/></svg>