<svg viewBox="0 0 400 300" xmlns="http://www.w3.org/2000/svg"><path d="m290.66 100.51v99a12.17 12.17 0 0 1 -12.18 12.17h-157a12.17 12.17 0 0 1 -12.18-12.17v-99a12.17 12.17 0 0 1 12.18-12.17h157a12.17 12.17 0 0 1 12.18 12.17z" fill="#fff"/><path d="m278.48 212.66h-157a13.2 13.2 0 0 1 -13.19-13.17v-99a13.2 13.2 0 0 1 13.19-13.17h157a13.2 13.2 0 0 1 13.19 13.17v99a13.2 13.2 0 0 1 -13.19 13.17zm-157-123.32a11.19 11.19 0 0 0 -11.19 11.17v99a11.19 11.19 0 0 0 11.19 11.17h157a11.19 11.19 0 0 0 11.19-11.17v-99a11.19 11.19 0 0 0 -11.19-11.17z" fill="#093f68"/><path d="m125.67 163.92h17.88v30.47h-17.88z" fill="#68e1fd"/><path d="m143.55 195.39h-17.88a1 1 0 0 1 -1-1v-30.47a1 1 0 0 1 1-1h17.88a1 1 0 0 1 1 1v30.47a1 1 0 0 1 -1 1zm-16.88-2h15.88v-28.47h-15.88z" fill="#093f68"/><path d="m158.36 152.14h17.88v42.26h-17.88z" fill="#68e1fd"/><path d="m176.24 195.39h-17.88a1 1 0 0 1 -1-1v-42.25a1 1 0 0 1 1-1h17.88a1 1 0 0 1 1 1v42.25a1 1 0 0 1 -1 1zm-16.88-2h15.88v-40.25h-15.88z" fill="#093f68"/><path d="m191.06 130.57h17.88v63.82h-17.88z" fill="#68e1fd"/><path d="m208.94 195.39h-17.88a1 1 0 0 1 -1-1v-63.82a1 1 0 0 1 1-1h17.88a1 1 0 0 1 1 1v63.82a1 1 0 0 1 -1 1zm-16.88-2h15.88v-61.82h-15.88z" fill="#093f68"/><path d="m223.76 165.2h17.88v29.19h-17.88z" fill="#68e1fd"/><path d="m241.64 195.39h-17.88a1 1 0 0 1 -1-1v-29.18a1 1 0 0 1 1-1h17.88a1 1 0 0 1 1 1v29.18a1 1 0 0 1 -1 1zm-16.88-2h15.88v-27.18h-15.88z" fill="#093f68"/><path d="m256.45 130.57h17.88v63.82h-17.88z" fill="#68e1fd"/><path d="m274.33 195.39h-17.88a1 1 0 0 1 -1-1v-63.82a1 1 0 0 1 1-1h17.88a1 1 0 0 1 1 1v63.82a1 1 0 0 1 -1 1zm-16.88-2h15.88v-61.82h-15.88z" fill="#093f68"/><path d="m232.7 175.13a1 1 0 0 1 -.73-.31l-32.13-33.82-32 20.6-.17.09-32.67 13.05a1 1 0 1 1 -.74-1.86l32.6-13 32.62-21a1 1 0 0 1 1.27.16l32 33.68 32-33.68a1 1 0 1 1 1.45 1.37l-32.7 34.45a1 1 0 0 1 -.8.27z" fill="#093f68"/><circle cx="134.61" cy="173.81" fill="#f56132" r="4.95"/><path d="m134.61 179.76a5.95 5.95 0 1 1 5.94-5.95 6 6 0 0 1 -5.94 5.95zm0-9.89a3.95 3.95 0 1 0 3.94 3.94 3.94 3.94 0 0 0 -3.94-3.94z" fill="#093f68"/><circle cx="167.3" cy="160.73" fill="#f56132" r="4.95"/><path d="m167.3 166.68a5.95 5.95 0 1 1 5.95-6 6 6 0 0 1 -5.95 6zm0-9.89a3.95 3.95 0 1 0 3.95 3.94 3.94 3.94 0 0 0 -3.95-3.94z" fill="#093f68"/><circle cx="200" cy="139.68" fill="#f56132" r="4.95"/><path d="m200 145.63a5.95 5.95 0 1 1 5.95-5.95 6 6 0 0 1 -5.95 5.95zm0-9.89a3.95 3.95 0 1 0 3.95 3.94 3.95 3.95 0 0 0 -3.95-3.94z" fill="#093f68"/><circle cx="232.7" cy="174.13" fill="#f56132" r="4.95"/><path d="m232.7 180.08a5.95 5.95 0 1 1 5.94-6 6 6 0 0 1 -5.94 6zm0-9.89a3.95 3.95 0 1 0 3.94 3.94 3.95 3.95 0 0 0 -3.94-3.94z" fill="#093f68"/><circle cx="265.39" cy="139.68" fill="#f56132" r="4.95"/><path d="m265.39 145.63a5.95 5.95 0 1 1 5.95-5.95 5.95 5.95 0 0 1 -5.95 5.95zm0-9.89a3.95 3.95 0 1 0 3.95 3.94 3.95 3.95 0 0 0 -3.95-3.94z" fill="#093f68"/><path d="m290.66 100.51v3.41h-181.32v-3.41a12.17 12.17 0 0 1 12.18-12.17h157a12.17 12.17 0 0 1 12.14 12.17z" fill="#68e1fd"/><path d="m290.67 104.92h-181.34a1 1 0 0 1 -1-1v-3.41a13.2 13.2 0 0 1 13.19-13.17h157a13.2 13.2 0 0 1 13.19 13.17v3.41a1 1 0 0 1 -1.04 1zm-180.34-2h179.34v-2.41a11.19 11.19 0 0 0 -11.19-11.17h-157a11.19 11.19 0 0 0 -11.19 11.17z" fill="#093f68"/><path d="m276.58 119.56h-25.58a1 1 0 1 1 0-2h25.62a1 1 0 0 1 0 2z" fill="#dfeaef"/><path d="m160 122.18h-29.54a1 1 0 0 1 0-2h29.54a1 1 0 1 1 0 2z" fill="#ffbc0e"/><path d="m171.79 133.4h-41.33a1 1 0 0 1 0-2h41.33a1 1 0 0 1 0 2z" fill="#ffbc0e"/><path d="m177.7 122.18h-11.61a1 1 0 1 1 0-2h11.61a1 1 0 0 1 0 2z" fill="#f56132"/><rect fill="#fff" height="44.47" rx="4.89" width="60.54" x="242.12" y="76.71"/><path d="m297.77 122.18h-50.77a5.89 5.89 0 0 1 -5.89-5.89v-34.69a5.89 5.89 0 0 1 5.89-5.89h50.76a5.9 5.9 0 0 1 5.89 5.89v34.69a5.9 5.9 0 0 1 -5.88 5.89zm-50.77-44.47a3.89 3.89 0 0 0 -3.89 3.89v34.69a3.89 3.89 0 0 0 3.89 3.89h50.76a3.89 3.89 0 0 0 3.89-3.89v-34.69a3.89 3.89 0 0 0 -3.89-3.89z" fill="#093f68"/><path d="m292.05 113.2h-39a1 1 0 0 1 -1-1v-28.49a1 1 0 1 1 2 0v27.49h38a1 1 0 0 1 0 2z" fill="#68e1fd"/><path d="m257.56 107.7a1 1 0 0 1 -.88-1.47c.66-1.24 6.63-12.08 12.3-11.52a7.32 7.32 0 0 1 5.29 3 5.62 5.62 0 0 0 4.59 2.45c2.48.09 6.76-3 11.72-8.41a1 1 0 1 1 1.48 1.34c-3.85 4.24-9.26 9.22-13.29 9.07a7.51 7.51 0 0 1 -6-3.14c-1.05-1.2-1.88-2.15-4-2.35-3.29-.3-8.09 6.25-10.35 10.47a1 1 0 0 1 -.86.56z" fill="#68e1fd"/><rect fill="#fff" height="43.74" rx="3.4" width="46.53" x="90.72" y="110.53"/><path d="m133.85 155.27h-39.73a4.41 4.41 0 0 1 -4.4-4.4v-36.94a4.41 4.41 0 0 1 4.4-4.4h39.73a4.41 4.41 0 0 1 4.4 4.4v36.94a4.41 4.41 0 0 1 -4.4 4.4zm-39.73-43.74a2.41 2.41 0 0 0 -2.4 2.4v36.94a2.4 2.4 0 0 0 2.4 2.4h39.73a2.4 2.4 0 0 0 2.4-2.4v-36.94a2.41 2.41 0 0 0 -2.4-2.4z" fill="#093f68"/><path d="m129 132.4a15.06 15.06 0 1 1 -15-15.05 15.11 15.11 0 0 1 15 15.05z" fill="#70cc40"/><path d="m114 148.46a16 16 0 1 1 14.12-8.41 16.07 16.07 0 0 1 -14.12 8.41zm0-30.11a14.07 14.07 0 1 0 14 14.05 14.07 14.07 0 0 0 -14-14.05z" fill="#093f68"/><path d="m129 132.4a15.11 15.11 0 0 1 -1.81 7.18l-13.19-7.18v-15.05a15.05 15.05 0 0 1 15 15.05z" fill="#fff"/><path d="m127.23 140.58a1 1 0 0 1 -.48-.12l-13.24-7.18a1 1 0 0 1 -.52-.88v-15.05a1 1 0 0 1 1-1 16.07 16.07 0 0 1 14.12 23.7 1 1 0 0 1 -.59.49 1 1 0 0 1 -.29.04zm-12.23-8.78 11.8 6.41a14.07 14.07 0 0 0 -11.8-19.83z" fill="#093f68"/></svg>