<svg viewBox="0 0 24 24" xmlns="http://www.w3.org/2000/svg"><path d="m11 8h2v1h-2z"/><path d="m11 4h2v1h-2z"/><path d="m11 10h2v1h-2z"/><path d="m21 12v-3a13.12436 13.12436 0 0 0 -8.35364 3h-1.29272a13.12436 13.12436 0 0 0 -8.35364-3v3a1 1 0 0 0 -1 1v2a1 1 0 0 0 1 1v4a13.153 13.153 0 0 1 9 3.55 13.19937 13.19937 0 0 1 9-3.55v-4a1 1 0 0 0 1-1v-2a1 1 0 0 0 -1-1z"/><circle cx="9" cy="4" r="1"/><circle cx="15" cy="4" r="1"/><path d="m16 8h-8a3.00328 3.00328 0 0 1 -3-3v-2a3.00328 3.00328 0 0 1 3-3h8a3.00328 3.00328 0 0 1 3 3v2a3.00328 3.00328 0 0 1 -3 3zm-8-6a1.0013 1.0013 0 0 0 -1 1v2a1.0013 1.0013 0 0 0 1 1h8a1.001 1.001 0 0 0 1-1v-2a1.001 1.001 0 0 0 -1-1z"/></svg>