<svg viewBox="0 0 400 300" xmlns="http://www.w3.org/2000/svg"><path d="m236.78 47.25h75.95v82.7h-75.95z" fill="#e6e6e6"/><path d="m248.47 57.54h13.21v13.21h-13.21z" fill="#a8a8a8"/><path d="m252.31 64.28 1.88 2.84 3.43-5.1" fill="none" stroke="#fff" stroke-linecap="round" stroke-linejoin="round" stroke-width="2"/><path d="m268.86 61.87h30.6v5.25h-30.6z" fill="#fff"/><path d="m248.47 81.56h13.21v13.21h-13.21z" fill="#a8a8a8"/><path d="m252.31 88.3 1.88 2.84 3.43-5.1" fill="none" stroke="#fff" stroke-linecap="round" stroke-linejoin="round" stroke-width="2"/><path d="m268.86 85.89h30.6v5.25h-30.6z" fill="#fff"/><path d="m248.47 104h13.21v13.21h-13.21z" fill="#a8a8a8"/><path d="m252.31 110.73 1.88 2.85 3.43-5.11" fill="none" stroke="#fff" stroke-linecap="round" stroke-linejoin="round" stroke-width="2"/><path d="m268.86 108.32h30.6v5.25h-30.6z" fill="#fff"/><path d="m236.78 175.85h75.95v51.63h-75.95z" fill="#e6e6e6"/><path d="m236.78 88.16s27.29 19 27.88 41.78h-16.19z" opacity=".08"/><path d="m193.08 89.73-24.8 19.72s-23.26 23.33-8.66 38.6 35.87-7.05 35.87-7.05z" fill="#68e1fd"/><path d="m193.08 89.73-24.8 19.72s-23.26 23.33-8.66 38.6 35.87-7.05 35.87-7.05z" opacity=".08"/><path d="m169.08 95.86h2.86v18.51h-2.86z" fill="#24285b" transform="matrix(.78628843 -.61785961 .61785961 .78628843 -28.5 127.81)"/><path d="m168.28 109.45s3.86-4.56 7.33-3.06 2.55 8.4-3.49 8.52-3.84-5.46-3.84-5.46z" fill="#f4a28c"/><ellipse cx="182.08" cy="252.84" fill="#e6e6e6" opacity=".45" rx="13.28" ry="75.54" transform="matrix(.00418878 -.99999123 .99999123 .00418878 -71.52 433.86)"/><path d="m192.39 247.09s-1.55 2.93-4.38 2.77-4 2.46-1.54 3.53 9.35-1.22 9.35-1.22l.51-5.16z" fill="#68e1fd"/><g fill="#f4a28c"><path d="m204.76 59.18s-.53 5.89.45 9.81a3 3 0 0 0 3.62 2.15 6.56 6.56 0 0 0 5.17-4.93l1.78-5.16a5.3 5.3 0 0 0 -2.32-5.67c-3.36-2.38-8.56.2-8.7 3.8z"/><path d="m215.43 61.99 3 19.14-10.67.9 2.11-14.29z"/><path d="m211 64.26s.05-2.28 1.76-2.1 1.66 3.47-.67 3.77z"/><path d="m204.62 62.91-1.62 2.27a1 1 0 0 0 .59 1.49l2.26.43z"/></g><path d="m209.27 70.85a7 7 0 0 0 3.47-2.06s-.16 3.55-4.06 7z" fill="#ce8172" opacity=".31"/><path d="m220 81.14-13.28 1.12s-26.3 7.74-25.24 32.48 3.45 55.05 3.45 55.05l35.4 4.63s58.86-80.1-.33-93.28z" fill="#68e1fd"/><path d="m225.61 97s-12.51 6.17-11.61 21.21-1.61 20.44-17.13 18.7-13.88 5-13.88 5l2 27.87 35.4 4.63 3.19-4.63s28.32-51.89 2.03-72.78z" opacity=".08"/><path d="m184.93 169.79-9.51 7.91a20.59 20.59 0 0 0 3.07 33.76l18.23 10.27 6.06-4.41-13.64-11.32a7.22 7.22 0 0 1 .79-11.68l4.86-3a22 22 0 0 1 8.89-3.19c5.26-.67 14-3.35 16.65-13.68z" fill="#24285b"/><path d="m204.62 51.6s-3.35 8.19 3.14 8.85 2.39 5.11 6.21 5.76 8.19-8.63 4.46-13.28-11.95-5.09-13.81-1.33z" fill="#24285b"/><path d="m220.33 174.42-24 72.59-6-.06s8.19-48.44 7.3-68.79z" fill="#24285b"/><path d="m221.34 101.84a9.78 9.78 0 0 1 16.47-8.21c6.87 6.48 14.13 16.92 16 32.86 3.86 32.29-7.5 64.05-57.47 12.74l5.08-5.89s24.83 17.15 32.18 14.21c5.64-2.24-10-25.45-12.26-45.71z" fill="#68e1fd"/><path d="m221.34 101.84a9.78 9.78 0 0 1 16.47-8.21c6.87 6.48 14.13 16.92 16 32.86 3.86 32.29-7.5 64.05-57.47 12.74l5.08-5.89s24.83 17.15 32.18 14.21c5.64-2.24-10-25.45-12.26-45.71z" fill="#fff" opacity=".46"/><path d="m152.32 242.19s8.65-2.33 10.56-10.36c0 0-13.37-2.76-13.81 11z" fill="#68e1fd" opacity=".58"/><path d="m151.27 241.33s6.07-9.52.8-18.46c0 0-10.21 6.42-5.74 18.46z" fill="#68e1fd" opacity=".73"/><path d="m149.71 241.33s-3.15-10.09-12.78-12c0 0-1.83 6.53 6.19 12z" fill="#68e1fd"/><path d="m155.97 241.13-1.79 11.97h-11.03l-1.58-11.97z" fill="#24285b"/><path d="m170.59 110.14h26.52v38.71h-26.52z" fill="#ffd200" transform="matrix(.99209281 -.12550639 .12550639 .99209281 -14.8 24.1)"/><path d="m197.69 137.71s-10.28-5-7.78-8.7 11.55 4.33 11.55 4.33z" fill="#f4a28c"/><circle cx="120.73" cy="70.87" fill="#e6e6e6" r="20.07"/><circle cx="120.73" cy="70.87" fill="#fff" r="14.19"/><path d="m120.73 62.72v9.53l7.82-1.12" fill="none" stroke="#c1c1c1" stroke-linecap="round" stroke-linejoin="round" stroke-width="2"/><circle cx="120.73" cy="125.22" fill="#e6e6e6" r="20.07"/><circle cx="120.73" cy="125.22" fill="#fff" r="14.19"/><path d="m120.73 117.07v9.53l7.82-1.13" fill="none" stroke="#c1c1c1" stroke-linecap="round" stroke-linejoin="round" stroke-width="2"/><circle cx="246.89" cy="187.45" opacity=".08" r="3.17"/><circle cx="246.89" cy="201.09" opacity=".08" r="3.17"/><circle cx="246.89" cy="214.73" opacity=".08" r="3.17"/><path d="m258.61 187.45h37.46" fill="none" stroke="#fff" stroke-linecap="round" stroke-linejoin="bevel" stroke-width="2"/><path d="m258.61 201.09h37.46" fill="none" stroke="#fff" stroke-linecap="round" stroke-linejoin="bevel" stroke-width="2"/><path d="m258.61 214.73h37.46" fill="none" stroke="#fff" stroke-linecap="round" stroke-linejoin="bevel" stroke-width="2"/><path d="m102.85 172.58h35.75v28.29h-35.75z" fill="#e6e6e6"/><path d="m102.85 167.26h35.75v9.35h-35.75z" fill="#c1c1c1"/><path d="m108.09 162.4h3.05v7.75h-3.05z" fill="#e6e6e6"/><path d="m130.21 162.32h3.05v7.75h-3.05z" fill="#e6e6e6"/><text fill="#fff" font-family="Poppins-SemiBold, Poppins" font-size="15.5" font-weight="600" transform="translate(111.6 194.08)">30</text></svg>