<svg viewBox="0 0 400 300" xmlns="http://www.w3.org/2000/svg"><rect fill="#fff" height="143.26" rx="7" width="223.73" x="92.06" y="71.99"/><path d="m308.79 215.75h-209.73a7.51 7.51 0 0 1 -7.5-7.5v-129.25a7.52 7.52 0 0 1 7.5-7.51h209.73a7.52 7.52 0 0 1 7.5 7.51v129.25a7.51 7.51 0 0 1 -7.5 7.5zm-209.73-143.26a6.51 6.51 0 0 0 -6.5 6.51v129.25a6.51 6.51 0 0 0 6.5 6.5h209.73a6.51 6.51 0 0 0 6.5-6.5v-129.25a6.51 6.51 0 0 0 -6.5-6.51z" fill="#231f20"/><path d="m315.79 193.1h-223.73a.51.51 0 0 1 -.5-.5.5.5 0 0 1 .5-.5h223.73a.5.5 0 0 1 .5.5.5.5 0 0 1 -.5.5z" fill="#231f20"/><path d="m232.52 242.95h-57.19l10.55-27.7h36.1z" fill="#fff"/><path d="m232.52 243.45h-57.19a.49.49 0 0 1 -.41-.22.5.5 0 0 1 -.06-.46l10.55-27.69a.5.5 0 0 1 .47-.33h36.12a.49.49 0 0 1 .46.33l10.54 27.69a.51.51 0 0 1 -.47.68zm-56.46-1h55.74l-10.17-26.7h-35.41z" fill="#231f20"/><rect fill="#fff" height="7.47" rx="3.35" width="77.31" x="165.27" y="241.32"/><path d="m239.23 249.29h-70.61a3.85 3.85 0 0 1 -3.85-3.85v-.76a3.86 3.86 0 0 1 3.85-3.86h70.61a3.86 3.86 0 0 1 3.85 3.86v.76a3.85 3.85 0 0 1 -3.85 3.85zm-70.61-7.47a2.86 2.86 0 0 0 -2.85 2.86v.76a2.86 2.86 0 0 0 2.85 2.85h70.61a2.86 2.86 0 0 0 2.85-2.85v-.76a2.86 2.86 0 0 0 -2.85-2.86z" fill="#231f20"/><path d="m100.05 78.74h207.75v105.08h-207.75z" fill="#68e1fd"/><path d="m100.05 78.74h207.75v105.08h-207.75z" fill="#d1d3d4"/><path d="m180.66 227.9 42.58-8.27-1.67-4.38h-36.1z" fill="#231f20"/><path d="m180.66 228.4a.5.5 0 0 1 -.47-.68l4.81-12.64a.51.51 0 0 1 .47-.33h36.1a.5.5 0 0 1 .47.33l1.67 4.37a.51.51 0 0 1 0 .42.53.53 0 0 1 -.35.25l-42.58 8.27zm5.16-12.65-4.38 11.49 41.12-8-1.33-3.5z" fill="#231f20"/><path d="m279.66 54.06v129.77h-151.41v-138.36h142.82a8.59 8.59 0 0 1 8.59 8.59z" fill="#fff"/><path d="m279.66 184.33h-151.41a.51.51 0 0 1 -.5-.5v-138.36a.5.5 0 0 1 .5-.5h142.82a9.06 9.06 0 0 1 9.09 9.09v129.77a.5.5 0 0 1 -.5.5zm-150.91-1h150.41v-129.27a8.07 8.07 0 0 0 -8.09-8.06h-142.32z" fill="#231f20"/><path d="m201.72 90.55h-64.51a.5.5 0 0 1 -.5-.5v-22.61a.5.5 0 0 1 .5-.5.5.5 0 0 1 .5.5v22.11h64a.5.5 0 0 1 .5.5.5.5 0 0 1 -.49.5z" fill="#d1d3d4"/><path d="m189.16 145h-51.37a.5.5 0 0 1 -.5-.5v-47.11a.5.5 0 0 1 .5-.5h51.37a.5.5 0 0 1 .5.5v47.15a.5.5 0 0 1 -.5.46zm-50.87-1h50.37v-46.11h-50.37z" fill="#d1d3d4"/><path d="m269.53 176.73h-128.73a.5.5 0 0 1 -.5-.5v-22.83a.5.5 0 0 1 .5-.5h128.73a.51.51 0 0 1 .5.5v22.83a.5.5 0 0 1 -.5.5zm-128.23-1h127.7v-21.83h-127.7z" fill="#d1d3d4"/><path d="m269.53 162h-128.73a.5.5 0 0 1 -.5-.5.5.5 0 0 1 .5-.5h128.73a.51.51 0 0 1 .5.5.5.5 0 0 1 -.5.5z" fill="#d1d3d4"/><path d="m85.12 245.53v7.35s16.95 2 16.57 1.21-9.69-7.43-9.69-7.43z" fill="#231f20"/><path d="m100.37 254.74c-1.93 0-6.1-.29-15.3-1.36a.5.5 0 0 1 -.45-.5v-7.35a.49.49 0 0 1 .18-.38.5.5 0 0 1 .41-.12l6.79 1.14a.43.43 0 0 1 .21.09c2.84 2 9.5 6.82 9.9 7.61a.62.62 0 0 1 0 .56c-.11.13-.23.31-1.74.31zm-14.75-2.3c6.11.7 12.73 1.33 15 1.33-1.46-1.22-5.33-4.08-8.91-6.63l-6.13-1z" fill="#231f20"/><path d="m85.13 239.05v6.48l6.82 1.13 1.13-7.61z" fill="#fff"/><path d="m92 247.17h-.08l-6.92-1.17a.5.5 0 0 1 -.42-.49v-6.48a.5.5 0 0 1 .5-.5h8a.49.49 0 0 1 .38.17.49.49 0 0 1 .12.4l-1.14 7.62a.5.5 0 0 1 -.2.33.51.51 0 0 1 -.24.12zm-6.33-2.07 5.91 1 1-6.54h-6.96z" fill="#231f20"/><path d="m108.66 240.98v6.94l7.74.56.45-7.5z" fill="#fff"/><path d="m116.4 249-7.73-.57a.49.49 0 0 1 -.47-.49v-6.94a.5.5 0 0 1 .5-.5h8.19a.52.52 0 0 1 .37.16.5.5 0 0 1 .13.37l-.45 7.5a.51.51 0 0 1 -.17.35.52.52 0 0 1 -.37.12zm-7.24-1.53 6.77.5.39-6.47h-7.16z" fill="#231f20"/><path d="m120.09 170.73-2.48 71.69h-10.08l-5.28-53.38-8.37 52.47-9.67-.53 5.31-69.67z" fill="#231f20"/><path d="m117.61 242.92h-10.08a.5.5 0 0 1 -.5-.45l-4.89-49.53-7.77 48.65a.49.49 0 0 1 -.52.42l-9.67-.53a.5.5 0 0 1 -.47-.54l5.29-69.67a.49.49 0 0 1 .49-.46l30.57-.58a.53.53 0 0 1 .37.15.52.52 0 0 1 .14.36l-2.48 71.7a.5.5 0 0 1 -.48.48zm-9.63-1h9.15l2.44-70.68-29.57.56-5.23 68.71 8.71.48 8.3-52a.5.5 0 0 1 1 0z" fill="#231f20"/><path d="m141 150.45a19.13 19.13 0 0 1 6.08-1.35c3.44-.18 4.82-2.32 4.69-3.84s-3.35-2.77-5.54-2.4-7.28 3.81-7.28 3.81z" fill="#fff"/><path d="m141 151a.49.49 0 0 1 -.44-.26l-2.06-3.78a.5.5 0 0 1 .16-.65c.21-.15 5.2-3.5 7.47-3.89a7.27 7.27 0 0 1 5.1 1.24 2.39 2.39 0 0 1 1 1.61 3.52 3.52 0 0 1 -.92 2.57 5.74 5.74 0 0 1 -4.24 1.81 18.64 18.64 0 0 0 -5.9 1.31.51.51 0 0 1 -.17.04zm-1.4-4.11 1.62 3a19.92 19.92 0 0 1 5.83-1.22 4.75 4.75 0 0 0 3.53-1.46 2.49 2.49 0 0 0 .68-1.83 1.42 1.42 0 0 0 -.64-.91 6.3 6.3 0 0 0 -4.32-1c-1.73.18-5.5 2.58-6.7 3.37z" fill="#231f20"/><path d="m118.59 127.06s7.86 19.55 9.41 19.94 13.34-2.92 13.34-2.92l.27 7.26s-12.61 7.76-17.47 5.06-18.87-16.77-18.87-16.77z" fill="#68e1fd"/><g fill="#231f20"><path d="m148.51 145.09 6.32 4.11 8.28-12.95-6.32-4.11z"/><path d="m154.83 149.7a.43.43 0 0 1 -.27-.08l-6.32-4.11a.49.49 0 0 1 -.15-.68l8.28-13a.49.49 0 0 1 .32-.22.44.44 0 0 1 .37.07l6.32 4.11a.49.49 0 0 1 .15.68l-8.28 13a.45.45 0 0 1 -.32.22zm-5.63-4.7 5.48 3.56 7.74-12.12-5.48-3.56z"/><path d="m155.11 135.79 29.87-46.75 4.84 3.15"/><path d="m155.11 136.29a.56.56 0 0 1 -.27-.08.5.5 0 0 1 -.15-.69l29.87-46.75a.5.5 0 0 1 .31-.22.51.51 0 0 1 .38.07l4.84 3.15a.5.5 0 0 1 -.54.84l-4.42-2.88-29.6 46.33a.48.48 0 0 1 -.42.23z"/><ellipse cx="174.89" cy="115.56" rx="27.74" ry="22.39" transform="matrix(.52517463 -.85099448 .85099448 .52517463 -15.3 203.7)"/><path d="m170.36 142.44a19.46 19.46 0 0 1 -10.68-3.08c-10.58-6.88-12.36-23.15-4-36.28 4.61-7.21 11.51-12.26 18.93-13.87a20.27 20.27 0 0 1 15.46 2.56c10.58 6.88 12.37 23.15 4 36.27-4.61 7.22-11.51 12.27-18.94 13.88a23.15 23.15 0 0 1 -4.77.52zm-13.82-38.82c-8.09 12.66-6.43 28.32 3.69 34.9a19 19 0 0 0 14.7 2.42c7.17-1.55 13.84-6.45 18.3-13.44 8.09-12.66 6.44-28.31-3.68-34.89a19 19 0 0 0 -14.71-2.42c-7.17 1.55-13.83 6.44-18.3 13.43z"/></g><ellipse cx="170.04" cy="112.41" fill="#fff" rx="27.74" ry="22.39" transform="matrix(.53 -.85 .85 .53 -14.92 198.08)"/><path d="m165.52 139.29a19.46 19.46 0 0 1 -10.68-3.08c-10.58-6.88-12.37-23.16-4-36.28 4.61-7.21 11.51-12.26 18.94-13.87a20.22 20.22 0 0 1 15.46 2.56c10.58 6.88 12.36 23.15 4 36.27-4.6 7.21-11.5 12.27-18.93 13.88a23.15 23.15 0 0 1 -4.79.52zm9.13-52.76a22.14 22.14 0 0 0 -4.65.47c-7.17 1.55-13.84 6.44-18.3 13.43-8.09 12.66-6.44 28.32 3.68 34.9a19 19 0 0 0 14.71 2.42c7.17-1.55 13.84-6.45 18.3-13.44 8.09-12.66 6.43-28.31-3.69-34.89a18.12 18.12 0 0 0 -10.05-2.89z" fill="#231f20"/><ellipse cx="170.04" cy="112.41" fill="#fff" rx="21.95" ry="17.72" transform="matrix(.52517463 -.85099448 .85099448 .52517463 -14.92 198.08)"/><path d="m166.46 133.78a15.5 15.5 0 0 1 -8.51-2.45c-8.41-5.48-9.84-18.42-3.18-28.85a24.46 24.46 0 0 1 15-11 16.1 16.1 0 0 1 12.31 2c8.42 5.47 9.85 18.41 3.19 28.84a24.48 24.48 0 0 1 -15 11 17.84 17.84 0 0 1 -3.81.46zm7.23-41.78a17.25 17.25 0 0 0 -3.66.41 23.44 23.44 0 0 0 -14.42 10.59c-6.36 10-5.07 22.29 2.89 27.47a14.93 14.93 0 0 0 11.56 1.9 23.47 23.47 0 0 0 14.41-10.58c6.37-10 5.08-22.3-2.88-27.48a14.36 14.36 0 0 0 -7.9-2.31z" fill="#231f20"/><path d="m155.19 102.75c-6.52 10.22-5.17 22.83 3 28.16a14.3 14.3 0 0 0 1.66.93c-6.83-5.84-7.62-17.48-1.52-27s16.93-13.63 25-9.76a15.44 15.44 0 0 0 -1.52-1.14c-8.15-5.36-20.09-1.4-26.62 8.81z" fill="#231f20"/><path d="m159.88 132.34a.54.54 0 0 1 -.22-.05 14.71 14.71 0 0 1 -1.71-1c-8.41-5.47-9.84-18.41-3.18-28.85a24.46 24.46 0 0 1 15-11 16.15 16.15 0 0 1 12.31 2 14.62 14.62 0 0 1 1.57 1.18.5.5 0 0 1 -.54.83c-8-3.81-18.45.31-24.38 9.58s-5.31 20.62 1.42 26.38a.5.5 0 0 1 -.32.88zm13.81-40.34a17.32 17.32 0 0 0 -3.66.41 23.4 23.4 0 0 0 -14.41 10.59c-5.92 9.26-5.23 20.56 1.28 26.26-4.52-6.49-4.27-16.42 1-24.73s14.19-12.66 21.93-11.17a14.38 14.38 0 0 0 -6.14-1.36z" fill="#231f20"/><path d="m125 185.29 3.3 2.15a3.47 3.47 0 0 0 4.82-1.06l22.56-35.31a3.54 3.54 0 0 0 -1-4.87l-3.29-2.15a3.48 3.48 0 0 0 -4.83 1.06l-22.56 35.31a3.54 3.54 0 0 0 1 4.87z" fill="#fff"/><path d="m130.15 188.5a4 4 0 0 1 -2.15-.64l-3.3-2.15a4 4 0 0 1 -1.19-5.56l22.56-35.31a4 4 0 0 1 5.52-1.21l3.29 2.15a4 4 0 0 1 1.19 5.56l-22.56 35.31a4 4 0 0 1 -3.36 1.85zm-4.91-3.63 3.3 2.15a3 3 0 0 0 2.24.41 3 3 0 0 0 1.89-1.32l22.56-35.31a3 3 0 0 0 -.89-4.18l-3.3-2.15a2.94 2.94 0 0 0 -2.24-.41 3 3 0 0 0 -1.89 1.32l-22.55 35.31a3 3 0 0 0 .88 4.18z" fill="#231f20"/><path d="m160.44 112.19a.5.5 0 0 1 -.21-1l14.77-6.85a.49.49 0 0 1 .66.24.5.5 0 0 1 -.24.67l-14.79 6.89a.54.54 0 0 1 -.19.05z" fill="#d1d3d4"/><path d="m172.47 113.68a.5.5 0 0 1 -.22-1l12.75-6.06a.51.51 0 0 1 .44.91l-12.75 6.1a.41.41 0 0 1 -.22.05z" fill="#d1d3d4"/><path d="m159.31 126.8a.52.52 0 0 1 -.45-.28.5.5 0 0 1 .23-.67l23.56-11.65a.5.5 0 1 1 .44.89l-23.56 11.66a.54.54 0 0 1 -.22.05z" fill="#d1d3d4"/><path d="m111 119.7c-.81-.09-1.62-.28-2.57-.42s-2-.54-2-1.43 1-1.34.82-2.09a1.66 1.66 0 0 0 -.29-.56 8.49 8.49 0 0 1 -1.22-6 8.33 8.33 0 0 1 3.26-5.2c-.25.06-.5-.2-.51-.47a1.08 1.08 0 0 1 .32-.7 5.14 5.14 0 0 1 2.55-1.35 15.51 15.51 0 0 1 9.18.59c2.25.82 4.9 2.83 4.44 5.61a2.2 2.2 0 0 1 -2 1.91c-.68 3-2.35 4.9-4.43 6.94a11.68 11.68 0 0 1 -5 3 6.55 6.55 0 0 1 -2.55.17z" fill="#fff"/><path d="m111.78 120.24a8.71 8.71 0 0 1 -.87 0c-.49-.06-1-.15-1.49-.24l-1.1-.19c-1.53-.23-2.43-1-2.39-1.94a2.36 2.36 0 0 1 .51-1.23c.22-.34.36-.55.32-.74a1.11 1.11 0 0 0 -.19-.35 8.94 8.94 0 0 1 -1.32-6.45 8.82 8.82 0 0 1 2.9-5.06 1.08 1.08 0 0 1 -.15-.49 1.48 1.48 0 0 1 .45-1.05 5.59 5.59 0 0 1 2.79-1.5 16 16 0 0 1 9.48.6c2.72 1 5.24 3.28 4.76 6.16a2.79 2.79 0 0 1 -2.1 2.3 14.75 14.75 0 0 1 -4.47 6.83 12.32 12.32 0 0 1 -5.22 3.12 6.63 6.63 0 0 1 -1.91.23zm-.76-1a6 6 0 0 0 2.39-.19 11.33 11.33 0 0 0 4.79-2.87c2.26-2.22 3.68-4 4.3-6.7a.53.53 0 0 1 .49-.39 1.73 1.73 0 0 0 1.51-1.5c.44-2.64-2.39-4.42-4.12-5.06a15.1 15.1 0 0 0 -8.89-.57 4.41 4.41 0 0 0 -2.29 1.21.64.64 0 0 0 -.2.33.47.47 0 0 1 .46.28.5.5 0 0 1 -.15.62 7.74 7.74 0 0 0 -3.07 4.88 7.93 7.93 0 0 0 1.14 5.69 1.86 1.86 0 0 1 .35.72 1.94 1.94 0 0 1 -.46 1.5 1.69 1.69 0 0 0 -.34.71c0 .51.82.81 1.54.92.4.06.77.13 1.14.2s.94.17 1.41.22z" fill="#231f20"/><path d="m123.53 114s1.92 3.64 1.39 4.31-2 0-2 0" fill="#fff"/><path d="m124.12 119.06a4.1 4.1 0 0 1 -1.43-.31.5.5 0 0 1 .39-.92c.48.2 1.27.34 1.45.11a11.81 11.81 0 0 0 -1.44-3.76.5.5 0 1 1 .88-.47c1 1.8 2 4.1 1.34 4.86a1.47 1.47 0 0 1 -1.19.49z" fill="#231f20"/><path d="m123.48 109.38c1.32 1.32.67 3.76.5 5.37-.23 2.27-.52 4.54-.85 6.79-.22 1.43-3.92 1.09-4.53.59v5.75l-7.48-3.8.76-4.67a4.71 4.71 0 0 0 4.24-2.51c1.72-2.79 2.12-9.18 2.12-9.18s3.96.37 5.24 1.66z" fill="#fff"/><path d="m118.64 128.38a.46.46 0 0 1 -.23-.06l-7.48-3.8a.51.51 0 0 1 -.27-.52l.77-4.67a.49.49 0 0 1 .54-.42 4.18 4.18 0 0 0 3.76-2.28c1.64-2.65 2-8.88 2-8.94a.51.51 0 0 1 .55-.47c.42 0 4.13.43 5.51 1.8 1.26 1.28 1 3.3.75 4.92 0 .31-.08.6-.11.86-.23 2.26-.52 4.56-.86 6.81a1.5 1.5 0 0 1 -1.07 1.18 6.57 6.57 0 0 1 -3.44.08v5a.52.52 0 0 1 -.5.51zm-6.93-4.58 6.42 3.26v-4.93a.5.5 0 0 1 .28-.45.51.51 0 0 1 .54.06 5.36 5.36 0 0 0 3.29.11c.26-.1.4-.23.42-.38.34-2.25.62-4.52.85-6.77q0-.42.12-.9c.2-1.4.44-3.15-.47-4.07-.82-.82-3.11-1.28-4.39-1.46-.14 1.62-.66 6.47-2.16 8.89a5.33 5.33 0 0 1 -4.24 2.75z" fill="#231f20"/><path d="m123.23 119.84a1.83 1.83 0 0 1 -2.6-1" fill="#fff"/><path d="m122.26 120.55a2.08 2.08 0 0 1 -.8-.14 2.3 2.3 0 0 1 -1.3-1.39.51.51 0 0 1 .28-.65.49.49 0 0 1 .65.28 1.36 1.36 0 0 0 .73.83 1.78 1.78 0 0 0 1.2-.09.5.5 0 0 1 .66.24.49.49 0 0 1 -.23.66 2.9 2.9 0 0 1 -1.19.26z" fill="#231f20"/><path d="m119.07 115a3.09 3.09 0 0 0 -.48-1.62 4.38 4.38 0 0 0 -.72-1.12 1.49 1.49 0 0 0 -1.18-.49 1.38 1.38 0 0 0 -1 .61 2.64 2.64 0 0 0 -.39 1.1 5 5 0 0 0 1.82 4.55l-.11-.15" fill="#fff"/><path d="m117.17 118.49a.48.48 0 0 1 -.3-.11 5.38 5.38 0 0 1 -2-5 3 3 0 0 1 .47-1.3 1.81 1.81 0 0 1 1.31-.83 2 2 0 0 1 1.59.64 5 5 0 0 1 .8 1.24 3.51 3.51 0 0 1 .54 1.89.51.51 0 0 1 -.54.46.5.5 0 0 1 -.46-.54 2.55 2.55 0 0 0 -.43-1.35 4 4 0 0 0 -.63-1 1 1 0 0 0 -.77-.35.94.94 0 0 0 -.59.4 2.32 2.32 0 0 0 -.3.89 4.47 4.47 0 0 0 1.36 3.85.53.53 0 0 1 .25.18l.11.15a.49.49 0 0 1 0 .65.47.47 0 0 1 -.41.13z" fill="#231f20"/><ellipse cx="123.04" cy="112.11" fill="#231f20" rx=".82" ry=".32" transform="matrix(.0399574 -.99920138 .99920138 .0399574 6.11 230.58)"/><path d="m109.45 125.32.9-2.44 9.88 1.59.73 3.83a19.55 19.55 0 0 1 -11.51-2.98z" fill="#231f20"/><path d="m119.85 128.85a20.58 20.58 0 0 1 -10.66-3.11.5.5 0 0 1 -.21-.59l.9-2.44a.52.52 0 0 1 .55-.33l9.88 1.6a.5.5 0 0 1 .42.4l.72 3.83a.49.49 0 0 1 -.09.39.47.47 0 0 1 -.34.2 10.39 10.39 0 0 1 -1.17.05zm-9.78-3.75a19.52 19.52 0 0 0 10.29 2.74l-.55-2.93-9.13-1.47z" fill="#231f20"/><path d="m140.81 157a46.69 46.69 0 0 0 4.47 1.92c.69.1 2-1.61 2.77-1.12s3.45 3.57 3.45 4.06-1.22 4.24-2.28 4a17.54 17.54 0 0 1 -3.26-1.37l-6.89-1" fill="#fff"/><path d="m149.3 166.43h-.17a16.66 16.66 0 0 1 -3.33-1.43l-6.8-1a.49.49 0 0 1 -.42-.56.51.51 0 0 1 .57-.43l6.88 1h.17a15.74 15.74 0 0 0 3.11 1.33c.53-.09 1.65-2.87 1.69-3.56a19.49 19.49 0 0 0 -3.21-3.63c-.16-.1-.78.34-1.08.55a2.24 2.24 0 0 1 -1.5.64 39 39 0 0 1 -4.62-2 .49.49 0 0 1 -.23-.66.5.5 0 0 1 .66-.24 37.89 37.89 0 0 0 4.34 1.87 3 3 0 0 0 .77-.47c.66-.46 1.47-1 2.19-.57s3.68 3.65 3.68 4.48c0 .49-.89 3.37-1.94 4.24a1.18 1.18 0 0 1 -.76.44z" fill="#231f20"/><path d="m124 129.82s2.7 20.44 4.17 20.44 15.48 6.74 15.48 6.74l-2.39 9s-17.94-2.6-21.83-4.49c-2.06-1-5.62-23-5.62-23z" fill="#68e1fd"/><path d="m123.45 128.74c-5.39-2.91-12.8-7.86-22.18-.6s-13.79 48.09-13.79 48.09l35.13-2.7s5.88-42.08.84-44.79z" fill="#68e1fd"/><path d="m117.46 160.63a.49.49 0 0 1 -.49-.4c0-.13-2.46-12.85-3.9-21.88a.5.5 0 0 1 .41-.57.52.52 0 0 1 .58.42c1.43 9 3.86 21.71 3.89 21.84a.5.5 0 0 1 -.4.58z" fill="#231f20"/><path d="m139.58 155.87a.51.51 0 0 1 -.17 0l-13.28-4.59a.52.52 0 0 1 -.34-.44c0-.17-1.17-16.61-2.45-20.41a.51.51 0 0 1 .31-.64.52.52 0 0 1 .64.32c1.23 3.66 2.3 17.9 2.48 20.33l13 4.49a.5.5 0 0 1 -.16 1z" fill="#231f20"/><path d="m144 144s3.44-2.88 4.56-2.82 5.34.56 4.14 1.47-4.25.48-4.25.48.35.37-1.08 1.38" fill="#fff"/><path d="m147.33 145a.5.5 0 0 1 -.29-.91 2.82 2.82 0 0 0 .89-.83.53.53 0 0 1 0-.37.5.5 0 0 1 .51-.26 7.71 7.71 0 0 0 3.73-.3 13.94 13.94 0 0 0 -3.72-.66c-.6-.06-2.63 1.38-4.21 2.71a.52.52 0 0 1 -.71-.07.49.49 0 0 1 .06-.7c.85-.71 3.72-3 4.91-2.94.18 0 4.43.24 4.8 1.44a.81.81 0 0 1 -.37.92c-1.06.8-3.14.73-4.12.64a3.8 3.8 0 0 1 -1.23 1.24.52.52 0 0 1 -.25.09z" fill="#231f20"/><path d="m108.66 247.92v6.36s16.15.8 15.92-.45-8.18-5.35-8.18-5.35z" fill="#231f20"/><path d="m117.78 255c-3.29 0-6.93-.15-9.14-.26a.5.5 0 0 1 -.48-.5v-6.36a.51.51 0 0 1 .16-.37.48.48 0 0 1 .38-.13l7.73.57a.41.41 0 0 1 .19 0c2.46 1.26 8.21 4.35 8.46 5.7a.66.66 0 0 1 -.16.55c-.51.67-3.62.8-7.14.8zm-8.62-1.23c6.41.3 13.27.33 14.79-.1-.78-.88-4.4-3-7.69-4.73l-7.1-.53z" fill="#231f20"/><path d="m271.07 45.47a8.59 8.59 0 0 0 -8.59 8.59v8.58h-146.41v-8.58a8.59 8.59 0 0 1 8.59-8.59z" fill="#68e1fd"/><path d="m262.48 63.14h-146.41a.51.51 0 0 1 -.5-.5v-8.58a9.1 9.1 0 0 1 9.09-9.06h146.41a.5.5 0 0 1 .5.5.5.5 0 0 1 -.5.5 8.1 8.1 0 0 0 -8.07 8.06v8.58a.5.5 0 0 1 -.52.5zm-145.91-1h145.43v-8.08a9.11 9.11 0 0 1 4.93-8.06h-142.27a8.1 8.1 0 0 0 -8.09 8.09z" fill="#231f20"/><path d="m203.59 98.77h11.1v45.77h-11.1z" fill="#68e1fd"/><path d="m214.69 145h-11.1a.5.5 0 0 1 -.5-.5v-45.73a.51.51 0 0 1 .5-.5h11.1a.5.5 0 0 1 .5.5v45.77a.5.5 0 0 1 -.5.46zm-10.6-1h10.1v-44.73h-10.1z" fill="#231f20"/><path d="m203.59 98.77h11.1v16.79h-11.1z" fill="#fff"/><path d="m214.69 116.06h-11.1a.5.5 0 0 1 -.5-.5v-16.79a.51.51 0 0 1 .5-.5h11.1a.5.5 0 0 1 .5.5v16.79a.5.5 0 0 1 -.5.5zm-10.6-1h10.1v-15.79h-10.1z" fill="#231f20"/><path d="m220.21 98.77h11.1v45.77h-11.1z" fill="#68e1fd"/><path d="m231.3 145h-11.09a.5.5 0 0 1 -.5-.5v-45.73a.5.5 0 0 1 .5-.5h11.09a.5.5 0 0 1 .5.5v45.77a.5.5 0 0 1 -.5.46zm-10.59-1h10.09v-44.73h-10.09z" fill="#231f20"/><path d="m220.21 98.77h11.1v22.88h-11.1z" fill="#fff"/><path d="m231.3 122.16h-11.09a.5.5 0 0 1 -.5-.5v-22.89a.5.5 0 0 1 .5-.5h11.09a.5.5 0 0 1 .5.5v22.89a.5.5 0 0 1 -.5.5zm-10.59-1h10.09v-21.89h-10.09z" fill="#231f20"/><path d="m236.82 98.77h11.1v45.77h-11.1z" fill="#68e1fd"/><path d="m247.92 145h-11.1a.5.5 0 0 1 -.5-.5v-45.73a.5.5 0 0 1 .5-.5h11.1a.51.51 0 0 1 .5.5v45.77a.5.5 0 0 1 -.5.46zm-10.6-1h10.1v-44.73h-10.1z" fill="#231f20"/><path d="m236.82 98.77h11.1v8.4h-11.1z" fill="#fff"/><path d="m247.92 107.67h-11.1a.5.5 0 0 1 -.5-.5v-8.4a.5.5 0 0 1 .5-.5h11.1a.51.51 0 0 1 .5.5v8.4a.51.51 0 0 1 -.5.5zm-10.6-1h10.1v-7.4h-10.1z" fill="#231f20"/><path d="m253.43 98.77h11.1v45.77h-11.1z" fill="#68e1fd"/><path d="m264.53 145h-11.1a.5.5 0 0 1 -.5-.5v-45.73a.5.5 0 0 1 .5-.5h11.1a.51.51 0 0 1 .5.5v45.77a.5.5 0 0 1 -.5.46zm-10.6-1h10.07v-44.73h-10.1z" fill="#231f20"/><path d="m253.43 98.77h11.1v17.48h-11.1z" fill="#fff"/><path d="m264.53 116.75h-11.1a.5.5 0 0 1 -.5-.5v-17.48a.5.5 0 0 1 .5-.5h11.1a.51.51 0 0 1 .5.5v17.48a.5.5 0 0 1 -.5.5zm-10.6-1h10.07v-16.48h-10.1z" fill="#231f20"/><path d="m177.84 176.73a.5.5 0 0 1 -.5-.5v-22.83a.5.5 0 0 1 .5-.5.51.51 0 0 1 .5.5v22.83a.5.5 0 0 1 -.5.5z" fill="#d1d3d4"/><path d="m238 176.73a.5.5 0 0 1 -.5-.5v-22.83a.51.51 0 0 1 .5-.5.5.5 0 0 1 .5.5v22.83a.5.5 0 0 1 -.5.5z" fill="#d1d3d4"/><path d="m272.06 145h-78.18a.5.5 0 0 1 0-1h78.18a.5.5 0 0 1 0 1z" fill="#231f20"/><path d="m141.41 86.75a.54.54 0 0 1 -.25-.06.52.52 0 0 1 -.16-.69 29.36 29.36 0 0 1 8-9c2.54-1.86 4.75-2.56 6.75-2.13a10.11 10.11 0 0 1 4.25 2.68c.37.32.74.65 1.11 1a14.92 14.92 0 0 0 3.65 2.15 4 4 0 0 0 1.73.38 3.59 3.59 0 0 0 1.87-.91 25.8 25.8 0 0 0 2.39-2.29 14.69 14.69 0 0 1 4.43-3.59 7.9 7.9 0 0 1 7.83.88 15.47 15.47 0 0 1 1.52 1.39 16.73 16.73 0 0 0 1.24 1.16c2.59 2.09 6.67 2.42 10.42.86 3.53-1.47 6.44-4.31 8.9-6.85a.5.5 0 0 1 .71 0 .51.51 0 0 1 0 .71c-2.53 2.61-5.53 5.52-9.24 7.07-4.07 1.71-8.56 1.31-11.43-1-.47-.39-.9-.82-1.32-1.24a14.15 14.15 0 0 0 -1.42-1.29 6.86 6.86 0 0 0 -6.81-.77 13.89 13.89 0 0 0 -4.12 3.36 25.61 25.61 0 0 1 -2.46 2.33 4.6 4.6 0 0 1 -2.4 1.13 4.8 4.8 0 0 1 -2.2-.46 15.55 15.55 0 0 1 -3.89-2.29c-.39-.31-.77-.64-1.15-1a9.3 9.3 0 0 0 -3.86-2.41c-1.71-.37-3.65.28-6 2a28.09 28.09 0 0 0 -7.73 8.65.5.5 0 0 1 -.36.23z" fill="#d1d3d4"/><path d="m262.77 75.65h-41.11a.51.51 0 0 1 -.5-.5.5.5 0 0 1 .5-.5h41.11a.5.5 0 0 1 .5.5.5.5 0 0 1 -.5.5z" fill="#d1d3d4"/><path d="m262.77 81.2h-16.77a.5.5 0 0 1 -.5-.5.5.5 0 0 1 .5-.5h16.75a.5.5 0 0 1 .5.5.5.5 0 0 1 -.48.5z" fill="#d1d3d4"/><path d="m239 81.2h-17.34a.5.5 0 0 1 -.5-.5.51.51 0 0 1 .5-.5h17.34a.51.51 0 0 1 .5.5.5.5 0 0 1 -.5.5z" fill="#d1d3d4"/><path d="m262.77 86.76h-35.9a.5.5 0 0 1 -.5-.5.5.5 0 0 1 .5-.5h35.9a.5.5 0 0 1 .5.5.5.5 0 0 1 -.5.5z" fill="#d1d3d4"/></svg>