<svg viewBox="0 0 400 300" xmlns="http://www.w3.org/2000/svg" xmlns:xlink="http://www.w3.org/1999/xlink"><linearGradient id="a" gradientUnits="userSpaceOnUse" x1="302.12" x2="279" y1="198.06" y2="221.75"><stop offset=".01" stop-color="#a67c52"/><stop offset="1" stop-color="#fff"/></linearGradient><linearGradient id="b" x1="222.84" x2="196.17" xlink:href="#a" y1="209.32" y2="256.5"/><linearGradient id="c" x1="125.94" x2="108.41" xlink:href="#a" y1="177.47" y2="217.91"/><linearGradient id="d" x1="120.93" x2="103.41" xlink:href="#a" y1="175.3" y2="215.74"/><linearGradient id="e" gradientUnits="userSpaceOnUse" x1="208.41" x2="186.98" y1="176.91" y2="189.71"><stop offset="0" stop-color="#808080"/><stop offset="1" stop-color="#fff"/></linearGradient><ellipse cx="211.76" cy="200.88" fill="#fecab5" rx="142.52" ry="60.46"/><path d="m297.23 188.11c-14.73 8.59-25.26 14.36-47.92 27.3 17.15 10.42 30.44 20 32.37 21.14l46.32-28.29c-3.92-2.09-12.42-11.08-30.77-20.15z" fill="url(#a)"/><path d="m143.66 253.59c27.2 7.53 55.44 7.21 83.44 7.08l32.28-19.85c-4-2.09-30.18-9.55-48.52-18.61-14.49 8.45-44.88 18.74-67.37 31.37a.57.57 0 0 1 .17.01z" fill="url(#b)"/><path d="m79.22 223.62c2.71 3.7 5.92 7.37 9.86 9.79a61.64 61.64 0 0 0 8.29 4l64.4-37.8c-5.16-2.72-22.2-12.36-46.11-24.18-15.09 8.8-26.81 15.34-45.47 25.92a47.62 47.62 0 0 0 9.03 22.27z" fill="url(#c)"/><path d="m92.07 236.33c1.67 1.14 2.81 1.91 3.32 2.21l.72-.43c-1.35-.58-2.7-1.11-4.04-1.78z" fill="url(#d)"/><path d="m180.43 135c-.24-4.1.61-8.36 1.08-12.32a101.35 101.35 0 0 1 3.75-18.52c3.74-12.16 11.86-25.66 27.49-25.04 32.25 1.28 33.62 52.88 33.52 59.56s-13.12 23.63-38.48 22.22c-7.59-.42-14.19-5.08-19-10.19-3-3.18-5.87-6.69-7.36-10.74a17.44 17.44 0 0 1 -1-4.97z" fill="#53b7b7"/><path d="m199.9 132.07s-5.2-26.66-.9-30c9.3-7.15 23.79-4.78 27.09.82s-.93 29.94-.93 29.94-18.96 2.83-25.26-.76z" fill="#f9aa43"/><path d="m274.34 200.61s5.16 13.54 35.42 13.54c38.87 0 46.68-60.27 21.61-82a32.88 32.88 0 0 0 -3.52-2.67 23.21 23.21 0 0 0 -18.09-3.2c-21.34 4.85-9.8 27.21-19.31 34.54s-29.45 13.54-16.11 39.79z" fill="#68e1fd"/><path d="m306.7 136.84s16.12-2.5 18.06 15.67-4.32 30.26-14.25 32.2-26.22-10.27-22.18-19.06 18.37-28.81 18.37-28.81z" fill="#050c29" opacity=".1"/><path d="m299.75 220.19c-.14.19-1.33 4.37-1.89 5.56s-2 7.25 1.89 8.37 5.67-5.69 5.92-8.06a52.43 52.43 0 0 0 0-6.52" fill="#050c29"/><path d="m265.9 201.22a5.15 5.15 0 0 1 -.86 1.64c-.44.37-5.3 2-6.36 2.58s-2.49 2.26-2.31 3.7 15-.61 17.46-2.42c0 0 .53-1.62-.58-5.89s-7.35.39-7.35.39z" fill="#050c29"/><path d="m297.24 164s-23.23-.61-29.41 3.85-3.88 32.4-2.89 33.53 8.55.47 9.39-.75l.2-22.89s23.08-1.37 24.12-1.47 1.34 2.69.71 3.29-2.64 4.19-2.7 6.08 1.61 34.82 1.61 34.82 6.18 2.42 9.11-1.17c0 0 .86-19.89.34-26.08 0 0 8.9-11.77 10.1-17.79a22.12 22.12 0 0 0 -.71-11.06" fill="#ff475a"/><path d="m299 163.95s-3.14-26.4-.35-29.49 10.71-1 14 1.13 7.59 3.51 9 9.12c1.74 6.81-5.4 22.25-7.26 23.18s-10.05 2.35-15.39-3.94z" fill="#f9aa43"/><path d="m306.41 133.23s-6-5.25-9.59 0-3.3 11.18-4.85 14.33c-1.64 3.32-9.23 17.66-9.23 17.66s5.23 1.05 6.41 4.18c0 0 10-14.86 11.38-19.25" fill="#f9aa43"/><path d="m309.71 133.78s10.42 4.56 12 10.93c1.09 4.38-2 21.19-3.43 22.6s-12.51 9.17-14.15 9.17c0 0-1.61-4.13-5.12-4.24 0 0 12.38-8.14 12.33-9.32s3.12-13.71 3.12-13.71" fill="#f9aa43"/><path d="m298.83 130a3.89 3.89 0 0 1 -1.68-3.84c.35-2.75 6.18-8.6 12.38-6.16s3.81 10.27 2.75 12.37a7.24 7.24 0 0 1 -3.6 3.36c-.25-.08-3.57-1.57-3.57-1.57" fill="#010e20"/><path d="m298.89 129.1c-.12-.11-.38 8.41 3 10.09s7-4.06 7-4.06 1.74-1.79.7-2.67-1.83.62-1.83.62-.59 1-1 1 .36-2.8-1-3.68-4.95.47-6.87-1.3z" fill="#ffc08d"/><path d="m286.91 188.11 16.71-9.14-23.24-13.05-14.62 9.53z" fill="#4179b6"/><path d="m261.84 160.82 23.76 13.58 1.31 13.71-21.15-12.66z" fill="#003f99"/><path d="m301 170.94a14.86 14.86 0 0 1 -2.66 2.11 37.21 37.21 0 0 0 -5.12 1.56c-.65.43-3 3.79-2.81 4.24s1.71-.39 3-2.13c-.27.34-2.31 2.92-2 3.31s1.6-.08 3.41-2.31c0 0-2 2.49-1.75 2.91s2.78-2.1 3-2.07-1.29 1.43-.93 2 2.6-1.45 3.1-1.92 1.85-.1 3.65-1.32a13.55 13.55 0 0 0 2.54-2.66 5.27 5.27 0 0 0 -3.43-3.72z" fill="#ffc08d"/><path d="m286.85 165.65a6.5 6.5 0 0 0 -3.57-1.24 43.87 43.87 0 0 0 -2.37 3.76c-.3.65-.55 3.26-.25 3.41a1.39 1.39 0 0 0 .85-.05s-.05.65.5.65.6-.25.6-.25.2 1 .65 1.1a2.12 2.12 0 0 0 1 .05s.55 1.15 1.1 1 .05-2.51 0-3 .3-2.36.85-2.46.8 1.45 1 2-.05 2.56.54 2.61.61-.5.71-1.25.35-3.66-.3-4.41-1.16-1.87-1.31-1.92z" fill="#ffc08d"/><path d="m143.63 193.43s-5.15 13.57-35.41 13.57c-38.87 0-46.68-60.27-21.61-82a32.88 32.88 0 0 1 3.52-2.67 23.21 23.21 0 0 1 18.09-3.2c21.34 4.85 9.8 27.21 19.31 34.54s29.47 13.51 16.1 39.76z" fill="#8ea3ff"/><path d="m111.27 129.66s-16.12-2.5-18.06 15.67 4.32 30.26 14.25 32.2 26.22-10.27 22.18-19.06-18.37-28.81-18.37-28.81z" fill="#7c96f7"/><path d="m118.22 213c.14.19 1.33 4.37 1.89 5.56s2 7.25-1.89 8.37-5.67-5.69-5.92-8.06a52.43 52.43 0 0 1 0-6.52" fill="#050c29"/><path d="m152.07 194a5.15 5.15 0 0 0 .86 1.64c.44.37 5.3 2 6.36 2.58s2.49 2.26 2.31 3.7-15-.61-17.46-2.42c0 0-.53-1.62.58-5.89s7.35.39 7.35.39z" fill="#050c29"/><path d="m120.73 156.8s23.23-.61 29.41 3.85 5.13 32 4.14 33.12-12.29 1.09-13.14-.14l2.3-23.1s-23.08-1.37-24.12-1.47-1.34 2.69-.71 3.29 2.64 4.19 2.7 6.08-.46 34.91-.46 34.91-9.42 2.62-12.35-1c0 0 .31-22.43.82-28.61 0 0-8-9.52-9.18-15.54a22.12 22.12 0 0 1 .71-11.06" fill="#ff475a"/><path d="m118.95 156.77s3.14-26.4.35-29.49-10.71-1-14 1.13-7.59 3.51-9 9.12c-1.74 6.81 5.4 22.25 7.26 23.18s10.07 2.35 15.39-3.94z" fill="#68e1fd"/><path d="m111.56 126.06s6-5.25 9.59 0 3.3 11.18 4.85 14.33c1.64 3.32 9.23 17.66 9.23 17.66s-5.23 1.05-6.41 4.18c0 0-10-14.86-11.38-19.25" fill="#68e1fd"/><path d="m108.26 126.6s-10.42 4.56-12 10.93c-1.09 4.38 2 21.19 3.43 22.6s12.51 9.17 14.15 9.17c0 0 1.61-4.13 5.12-4.24 0 0-12.38-8.14-12.33-9.32s-3.13-13.74-3.13-13.74" fill="#68e1fd"/><path d="m120.43 117.18a2.62 2.62 0 0 0 -1.73-3.85 3.69 3.69 0 0 0 -2.12.06 3.61 3.61 0 0 0 -5.24 0 4.65 4.65 0 0 0 -.88 1.48c-2-.11-4.1.46-4.92 2.58-1.14 2.93.31 6.19 1.7 8.76a2.27 2.27 0 0 0 4.11-.54l.22-.8a3.26 3.26 0 0 0 2-1.73 2.44 2.44 0 0 0 .19-.6 3.67 3.67 0 0 0 .45 0l.13.12a2.22 2.22 0 0 0 2.15 1.66c2-.12 4-.56 5-2.41a3.65 3.65 0 0 0 -1.06-4.73z" fill="#010e20"/><path d="m119.14 120.64c.13-.12.43 9.45-3.32 11.34s-7.83-4.56-7.83-4.56-2-2-.79-3 2.06.69 2.06.69.66 1.16 1.13 1.18-.4-3.14 1.08-4.14 5.53.48 7.67-1.51z" fill="#ffc08d"/><ellipse cx="113.3" cy="126.48" fill="none" rx="1.79" ry="2.04" stroke="#42210b" stroke-miterlimit="10" stroke-width=".25"/><ellipse cx="118.04" cy="125.7" fill="none" rx="2.13" ry="1.65" stroke="#42210b" stroke-miterlimit="10" stroke-width=".25" transform="matrix(.25477073 -.96700149 .96700149 .25477073 -33.59 207.82)"/><path d="m110.29 125.89 1.21.59" fill="none" stroke="#42210b" stroke-miterlimit="10" stroke-width=".25"/><path d="m115.09 126.48 1.3-.29" fill="none" stroke="#42210b" stroke-miterlimit="10" stroke-width=".25"/><path d="m131.06 180.94-16.71-9.14 23.24-13.06 14.62 9.53z" fill="#4179b6"/><path d="m156.13 153.65-23.76 13.58-1.31 13.71 21.15-12.67z" fill="#003f99"/><path d="m124.71 167.44a37.21 37.21 0 0 0 -5.12-1.56 12 12 0 0 1 -2.29-1.78c-1.08 1.33-2.16 2.67-3.23 4a11.13 11.13 0 0 0 2 2c1.8 1.22 3.15.85 3.65 1.32s2.73 2.45 3.1 1.92-1.17-1.93-.93-2 2.74 2.5 3 2.07-1.75-2.91-1.75-2.91c1.81 2.23 3.13 2.73 3.41 2.31s-1.77-3-2-3.31c1.28 1.74 2.83 2.57 3 2.13s-2.19-3.76-2.84-4.19z" fill="#ffc08d"/><path d="m131.12 158.47a6.5 6.5 0 0 1 3.57-1.24 43.87 43.87 0 0 1 2.31 3.77c.3.65.55 3.26.25 3.41a1.39 1.39 0 0 1 -.85-.05s.05.65-.5.65-.6-.25-.6-.25-.2 1-.65 1.1a2.12 2.12 0 0 1 -1 .05s-.55 1.15-1.1 1-.05-2.51 0-3-.3-2.36-.85-2.46-.8 1.45-1 2 .05 2.56-.54 2.61-.61-.5-.71-1.25-.35-3.66.3-4.41 1.25-1.88 1.37-1.93z" fill="#ffc08d"/><path d="m205 87.65s.19 11.15 5.65 11.64 7.64-5.89 7.38-10.24-10.33-5.87-13.03-1.4z" fill="#ffc08d"/><path d="m220.05 84.24c-2.23-4.28-10.68-6.23-15-1.35-3.24 3.7-4.18 15.06-1.52 15.84a7.72 7.72 0 0 0 5.12-.62 13.52 13.52 0 0 1 -2.4-9.36.63.63 0 0 1 .95-.47h4.36l.93-2.34.12 2.34h2.71l1-1.58s.73 3.64 1.13 6.1-1.45 5.1-1.45 5.1 3.93 1.11 5 .75 1.28-10.13-.95-14.41z" fill="#010e20"/><path d="m199 102.11a12.77 12.77 0 0 0 -4.11 7.48c-.62 4.61 2.41 17.52 2.41 17.52h8.7l-1.08-16" fill="#f9aa43"/><path d="m203.65 109.37c-.05-.53-.89-.54-.84 0q.58 5.7 1.48 11.35c.08.53.89.31.81-.22q-.89-5.5-1.45-11.13z" fill="#010e20"/><path d="m220.79 110c0-.54-.85-.54-.84 0a70.74 70.74 0 0 1 -.65 12c-.07.53.73.75.81.22a72 72 0 0 0 .68-12.22z" fill="#010e20"/><path d="m192.07 118.86h39.37l-4.48 20.57h-31.4z" fill="#003f99"/><path d="m195.56 139.43s-3.13 7.29-2.57 11.27 4.16 19.52 8.66 22 19.91 2.47 21.68.87 6.79-21.07 6.53-24.38-2.91-9.71-2.91-9.71" fill="#050c29"/><ellipse cx="209.5" cy="179.94" fill="#e88815" rx="49.96" ry="24.08"/><path d="m179.69 189.18q-3.6 9.61-7.11 19.26c-3.51 9.65-7.12 19.29-10.17 29.1a15.54 15.54 0 0 0 -1.16 4.56c0 2.21 1.9 2.9 3.44 1.14.87-1 21.16-54.07 21.16-54.07z" fill="#e88815"/><path d="m241 187.9q3.6 9.61 7.11 19.26c3.51 9.65 7.12 19.29 10.17 29.1a15.54 15.54 0 0 1 1.16 4.56c0 2.21-1.9 2.9-3.44 1.14-.87-1-21.16-54.07-21.16-54.07z" fill="#e88815"/><path d="m213 166.88q.17 10.26.25 20.53c.08 10.27.25 20.56-.16 30.82a15.54 15.54 0 0 1 -.44 4.68c-.76 2.08-2.76 2.1-3.62-.07-.49-1.22-1.84-58-1.84-58z" fill="#e88815"/><path d="m117.29 163.56q-4-3.86-8.25-7.35a.43.43 0 0 0 .11-.33q-.36-6.07-.45-12.15a.5.5 0 0 0 -1 0q.08 5.87.43 11.74l-.67-.54c-.5-.4-1.21.31-.71.71a128.47 128.47 0 0 1 9.82 8.63c.43.44 1.18-.27.72-.71z" fill="#4179b6"/><path d="m120.78 134.27c0-.64-1-.64-1 0q-.7 11-.49 22.11a.47.47 0 0 0 0 .13v.59a.5.5 0 0 0 1 0q-.24-11.42.49-22.83z" fill="#4179b6"/><path d="m203 169.24c-8.37 4.88-14.36 8.16-27.23 15.51 9.75 5.92 17.3 11.37 18.4 12l28.94-17c-2.25-1.15-9.68-5.36-20.11-10.51z" fill="url(#e)"/><ellipse cx="210.86" cy="173.33" fill="#68e1fd" rx="14.81" ry="10.43"/><ellipse cx="210.85" cy="167.17" fill="#974c26" rx="11.09" ry="4.54"/><g fill="#999a1c"><path d="m210.44 159.6c0-2-.07-4.1-.23-6.14q-.06-.8-.14-1.59l-.12-1c0-.31-.16-1.09-.16-1.06q-.1-.62-.22-1.25a48.9 48.9 0 0 0 -7.92-19.36 28.32 28.32 0 0 0 -2.2 11.34c0 1.13.09 2.24.18 3.37v.48s0-.07 0 .19c.09.55.19 1.1.3 1.65a44.76 44.76 0 0 0 1.75 6.15 37.37 37.37 0 0 0 2.39 5.36c1 1.94 2.11 3.82 3.28 5.66.92 1.44 1.79 2.73 2.66 3.95.3-2.63.43-5.19.43-7.75zm-5.82-23a1.84 1.84 0 0 0 -.05-.8q.43.43.83.89a2.54 2.54 0 0 0 -.79-.12z"/><path d="m214.26 161.18c1.11-1.72 2.16-3.49 3.12-5.29q.38-.7.74-1.42l.46-.94.44-1q.25-.58.49-1.17a48.9 48.9 0 0 0 3.81-20.57 28.32 28.32 0 0 0 -8 8.35c-.6 1-1.14 1.94-1.66 2.93l-.23.42s0-.05-.06.19c-.22.51-.43 1-.64 1.55a44.76 44.76 0 0 0 -1.85 6.12 37.37 37.37 0 0 0 -.88 5.8c-.2 2.17-.29 4.35-.3 6.53 0 1.7 0 3.26.11 4.76 1.57-2.02 3.06-4.1 4.45-6.26zm7.54-22.52a1.84 1.84 0 0 0 .39-.7q.12.6.22 1.2a2.54 2.54 0 0 0 -.61-.5z"/><path d="m214.18 166.28q1.73-.86 3.39-1.85l.86-.53.56-.36.55-.39.64-.47a30.75 30.75 0 0 0 8.7-9.87 17.81 17.81 0 0 0 -7 1.93c-.63.32-1.24.68-1.84 1l-.26.15s0 0-.09.08l-.84.63a28.15 28.15 0 0 0 -3 2.71 23.5 23.5 0 0 0 -2.35 2.85c-.81 1.11-1.56 2.25-2.27 3.43-.55.92-1 1.77-1.48 2.6 1.5-.54 2.98-1.19 4.43-1.91zm11.34-9.72a1.16 1.16 0 0 0 .43-.25q-.13.36-.27.72a1.6 1.6 0 0 0 -.16-.46z"/><path d="m210.44 159.6c0-2-.07-4.1-.23-6.14q-.06-.8-.14-1.59l-.12-1c0-.31-.16-1.09-.16-1.06q-.1-.62-.22-1.25a48.9 48.9 0 0 0 -7.92-19.36 28.32 28.32 0 0 0 -2.2 11.34c0 1.13.09 2.24.18 3.37v.48s0-.07 0 .19c.09.55.19 1.1.3 1.65a44.76 44.76 0 0 0 1.75 6.15 37.37 37.37 0 0 0 2.39 5.36c1 1.94 2.11 3.82 3.28 5.66.92 1.44 1.79 2.73 2.66 3.95.3-2.63.43-5.19.43-7.75zm-5.82-23a1.84 1.84 0 0 0 -.05-.8q.43.43.83.89a2.54 2.54 0 0 0 -.79-.12z"/><path d="m214.26 161.18c1.11-1.72 2.16-3.49 3.12-5.29q.38-.7.74-1.42l.46-.94.44-1q.25-.58.49-1.17a48.9 48.9 0 0 0 3.81-20.57 28.32 28.32 0 0 0 -8 8.35c-.6 1-1.14 1.94-1.66 2.93l-.23.42s0-.05-.06.19c-.22.51-.43 1-.64 1.55a44.76 44.76 0 0 0 -1.85 6.12 37.37 37.37 0 0 0 -.88 5.8c-.2 2.17-.29 4.35-.3 6.53 0 1.7 0 3.26.11 4.76 1.57-2.02 3.06-4.1 4.45-6.26zm7.54-22.52a1.84 1.84 0 0 0 .39-.7q.12.6.22 1.2a2.54 2.54 0 0 0 -.61-.5z"/><path d="m214.18 166.28q1.73-.86 3.39-1.85l.86-.53.56-.36.55-.39.64-.47a30.75 30.75 0 0 0 8.7-9.87 17.81 17.81 0 0 0 -7 1.93c-.63.32-1.24.68-1.84 1l-.26.15s0 0-.09.08l-.84.63a28.15 28.15 0 0 0 -3 2.71 23.5 23.5 0 0 0 -2.35 2.85c-.81 1.11-1.56 2.25-2.27 3.43-.55.92-1 1.77-1.48 2.6 1.5-.54 2.98-1.19 4.43-1.91zm11.34-9.72a1.16 1.16 0 0 0 .43-.25q-.13.36-.27.72a1.6 1.6 0 0 0 -.16-.46z"/></g></svg>