<svg viewBox="0 0 400 300" xmlns="http://www.w3.org/2000/svg"><path d="m171.33 83.72h147.77v129.98h-147.77z" fill="#fff"/><path d="m319.1 214.7h-147.77a1 1 0 0 1 -1-1v-130a1 1 0 0 1 1-1h147.77a1 1 0 0 1 1 1v130a1 1 0 0 1 -1 1zm-146.77-2h145.77v-128h-145.77z" fill="#093f68"/><path d="m274.47 123.75a29.06 29.06 0 0 1 -1.1 8 28.65 28.65 0 0 1 -2.41 6 29.33 29.33 0 0 1 -25.73 15.25c-.69 0-1.37 0-2-.08a29.25 29.25 0 1 1 29.26-39.86 28.93 28.93 0 0 1 1.98 10.69z" fill="#70cc40"/><path d="m245.23 154c-.81 0-1.49 0-2.13-.09a30.25 30.25 0 1 1 30.28-41.22 30.49 30.49 0 0 1 -1.54 25.47 30.35 30.35 0 0 1 -26.61 15.84zm0-58.51a28.25 28.25 0 0 0 -2 56.43c.6.05 1.22.08 2 .08a28.23 28.23 0 0 0 28.24-28.27 28.24 28.24 0 0 0 -28.24-28.24z" fill="#093f68"/><path d="m274.47 123.75a29.06 29.06 0 0 1 -1.1 8 28.65 28.65 0 0 1 -2.41 6l-25.73-14v-29.24a29.23 29.23 0 0 1 27.22 18.57 28.93 28.93 0 0 1 2.02 10.67z" fill="#ffbc0e"/><path d="m271 138.71a1 1 0 0 1 -.48-.12l-25.73-14a1 1 0 0 1 -.52-.88v-29.2a1 1 0 0 1 1-1 30.33 30.33 0 0 1 26.61 44.67 1 1 0 0 1 -.59.49 1.45 1.45 0 0 1 -.29.04zm-24.73-15.56 24.31 13.19a27.85 27.85 0 0 0 1.87-4.89 28.34 28.34 0 0 0 1.06-7.7 28.25 28.25 0 0 0 -27.24-28.23z" fill="#093f68"/><path d="m274.47 123.75a29.06 29.06 0 0 1 -1.1 8 28.65 28.65 0 0 1 -2.41 6l-25.73-14 27.22-10.67a28.93 28.93 0 0 1 2.02 10.67z" fill="#f56132"/><path d="m271 138.71a1 1 0 0 1 -.48-.12l-25.73-14a1 1 0 0 1 -.52-.94 1 1 0 0 1 .63-.87l27.22-10.67a1 1 0 0 1 1.3.56 30.49 30.49 0 0 1 -1.54 25.47 1 1 0 0 1 -.59.49 1.45 1.45 0 0 1 -.29.08zm-23.4-14.82 22.94 12.45a27.85 27.85 0 0 0 1.87-4.89 28.34 28.34 0 0 0 1.06-7.7 28 28 0 0 0 -1.6-9.37z" fill="#093f68"/><path d="m304.8 198.51h-118.87a1 1 0 0 1 -1-1v-43.7a1 1 0 0 1 2 0v42.7h117.87a1 1 0 0 1 0 2z" fill="#093f68"/><path d="m210.24 198.51h-10.24a1 1 0 0 1 -1-1v-11a1 1 0 0 1 1-1h10.24a1 1 0 0 1 1 1v11a1 1 0 0 1 -1 1zm-9.24-2h8.24v-9h-8.24z" fill="#093f68"/><path d="m232.51 198.51h-10.24a1 1 0 0 1 -1-1v-22a1 1 0 0 1 1-1h10.24a1 1 0 0 1 1 1v22a1 1 0 0 1 -1 1zm-9.24-2h8.24v-20h-8.24z" fill="#093f68"/><path d="m254.79 198.51h-10.24a1 1 0 0 1 -1-1v-26.18a1 1 0 0 1 1-1h10.24a1 1 0 0 1 1 1v26.18a1 1 0 0 1 -1 1zm-9.24-2h8.24v-24.18h-8.24z" fill="#093f68"/><path d="m277.07 198.51h-10.24a1 1 0 0 1 -1-1v-34.58a1 1 0 0 1 1-1h10.24a1 1 0 0 1 1 1v34.58a1 1 0 0 1 -1 1zm-9.24-2h8.24v-32.58h-8.24z" fill="#093f68"/><path d="m299.34 198.51h-10.24a1 1 0 0 1 -1-1v-42.51a1 1 0 0 1 1-1h10.24a1 1 0 0 1 1 1v42.47a1 1 0 0 1 -1 1.04zm-9.24-2h8.24v-40.51h-8.24z" fill="#093f68"/><path d="m176.1 174.94c3.28 3.52 6.32 7.26 9.37 11l13.95-12.61c3.44-3.12 10.36-9.6 5.88-14.36a9.49 9.49 0 0 0 -2.66-1.67c-2.06-1.1-4.12-2.75-6.42-2.38a7.61 7.61 0 0 0 -3.68 2.19 52 52 0 0 0 -5.11 4.84c-1.29 1.55-1 2.4-1.8 4.08s-3 3-4.36 4.26z" fill="#ffc9b0"/><path d="m185.47 186.92h-.08a1 1 0 0 1 -.7-.36l-.49-.6c-2.82-3.46-5.75-7-8.83-10.33a1 1 0 0 1 -.26-.73 1 1 0 0 1 .32-.7l5.17-4.67c.39-.35.84-.71 1.3-1.09a10.92 10.92 0 0 0 2.83-2.87 8.26 8.26 0 0 0 .53-1.5 6.59 6.59 0 0 1 1.41-2.78 36.87 36.87 0 0 1 4-3.89c.41-.36.81-.71 1.19-1.06a8.56 8.56 0 0 1 4.19-2.43c2.19-.35 4.12.79 5.83 1.79.4.24.81.48 1.22.7l.54.27a7.93 7.93 0 0 1 2.37 1.6 6 6 0 0 1 1.74 4.46c-.18 4.54-5.24 9.12-7.67 11.32l-14 12.62a1 1 0 0 1 -.61.25zm-7.94-11.92c2.8 3.06 5.46 6.31 8.05 9.47l13.17-11.92c2.05-1.85 6.86-6.21 7-9.91a4 4 0 0 0 -1.19-3 6.28 6.28 0 0 0 -1.83-1.18l-.57-.3c-.43-.23-.86-.48-1.3-.74-1.55-.91-3-1.77-4.49-1.53a6.75 6.75 0 0 0 -3.17 1.94l-1.2 1.07a35.82 35.82 0 0 0 -3.8 3.67 4.57 4.57 0 0 0 -1 2 10.7 10.7 0 0 1 -.66 1.83 12 12 0 0 1 -3.37 3.56c-.44.35-.86.68-1.22 1-.06.1-3.01 2.76-4.42 4.04z" fill="#093f68"/><path d="m190.56 175.17a1 1 0 0 1 -.56-.17 1 1 0 0 1 -.25-1.4l35.15-50.41a1 1 0 0 1 1.39-.25 1 1 0 0 1 .25 1.39l-35.15 50.42a1 1 0 0 1 -.83.42z" fill="#093f68"/><path d="m194.92 159.39c1 .17 5 .3 5.81.86a2 2 0 0 1 .79 2.57 2.74 2.74 0 0 1 -2.21 1 25.71 25.71 0 0 1 -6.38-.23 6.91 6.91 0 0 1 -3.51 6.83" fill="#ffc9b0"/><path d="m189.42 171.38a1 1 0 0 1 -.47-1.88 5.94 5.94 0 0 0 3-5.82 1 1 0 0 1 .3-.85 1 1 0 0 1 .85-.27 24.69 24.69 0 0 0 6.13.23c.3 0 1.21-.11 1.45-.5s-.07-.91-.51-1.22a20 20 0 0 0 -3.82-.53c-.7-.06-1.26-.1-1.59-.16a1 1 0 0 1 .34-2c.27 0 .8.09 1.42.14 2.7.22 4.11.41 4.79.88a3 3 0 0 1 1.07 3.92 3.81 3.81 0 0 1 -3 1.43 27.17 27.17 0 0 1 -5.41-.07 7.9 7.9 0 0 1 -4.09 6.55 1 1 0 0 1 -.46.15z" fill="#093f68"/><path d="m181.59 169.13s-14.4 9.66-17.08 11c0 0-15.33-18.7-31.49-18.7h-17.73c-10.24 0-18.55 9.17-18.55 20.47v31.8h52.26v-20.7c7.26 4.13 11.37 6.54 14.69 7.3 4.68 1.08 10.2-2.54 25.45-18.23z" fill="#68e1fd"/><path d="m149 214.7h-52.26a1 1 0 0 1 -1-1v-31.79c0-11.84 8.77-21.47 19.55-21.47h17.71c8.63 0 17 5.2 22.43 9.57a73.88 73.88 0 0 1 9.29 8.86c3.78-2.18 16.15-10.48 16.29-10.57a1 1 0 0 1 1.42.32l7.57 12.94a1 1 0 0 1 -.15 1.2c-15.14 15.58-21.07 19.74-26.39 18.51-3.22-.75-7.09-2.94-13.46-6.56v19a1 1 0 0 1 -1 .99zm-51.27-2h50.27v-19.7a1 1 0 0 1 1.49-.87l1.28.72c6.34 3.61 10.16 5.79 13.14 6.48 4.32 1 10.17-3.25 24-17.41l-6.64-11.36c-3.21 2.14-14 9.3-16.3 10.48a1 1 0 0 1 -1.22-.26c-.15-.18-15.23-18.33-30.72-18.33h-17.74c-9.67 0-17.55 8.74-17.55 19.47z" fill="#093f68"/><path d="m110.12 194.11a1 1 0 0 1 -1-1v-19.78a1 1 0 0 1 2 0v19.78a1 1 0 0 1 -1 1z" fill="#093f68"/><rect fill="#ffc9b0" height="19.44" rx="3.64" transform="matrix(.98 -.22 .22 .98 -41.63 25.65)" width="15.13" x="86.23" y="189.12"/><path d="m91.31 210.28a4.65 4.65 0 0 1 -4.53-3.62l-2.69-11.85a4.66 4.66 0 0 1 3.51-5.56l7.65-1.73a4.64 4.64 0 0 1 5.55 3.5l2.69 11.86a4.65 4.65 0 0 1 -3.5 5.55l-7.65 1.74a5.23 5.23 0 0 1 -1.03.11zm5-20.88a2.36 2.36 0 0 0 -.58.07l-7.73 1.73a2.64 2.64 0 0 0 -2 3.17l2.68 11.85a2.65 2.65 0 0 0 3.17 2l7.64-1.73a2.64 2.64 0 0 0 2-3.16l-2.69-11.86a2.66 2.66 0 0 0 -2.53-2.07z" fill="#093f68"/><path d="m92.16 180.76h26.72v33.14h-26.72z" fill="#fff" transform="matrix(.97890307 -.2043252 .2043252 .97890307 -38.09 25.72)"/><path d="m95.83 217.28a1 1 0 0 1 -.55-.17 1 1 0 0 1 -.43-.63l-6.77-32.48a1 1 0 0 1 .77-1.18l26.15-5.42a1 1 0 0 1 1.18.77l6.82 32.44a1 1 0 0 1 -.14.75 1 1 0 0 1 -.63.43l-26.23 5.46a.64.64 0 0 1 -.17.03zm-5.59-32.67 6.36 30.48 24.2-5.09-6.36-30.48z" fill="#093f68"/><path d="m121.12 157.51h9.73a0 0 0 0 1 0 0v5.6a4.13 4.13 0 0 1 -4.13 4.13h-1.47a4.13 4.13 0 0 1 -4.13-4.13v-5.6a0 0 0 0 1 0 0z" fill="#ffc9b0" transform="matrix(.97745276 -.2111542 .2111542 .97745276 -31.45 30.27)"/><path d="m125.42 168.38a5.14 5.14 0 0 1 -5-4l-1.18-5.47a1 1 0 0 1 .77-1.19l9.51-2.06a1 1 0 0 1 .75.14 1 1 0 0 1 .44.63l1.18 5.48a5.13 5.13 0 0 1 -3.93 6.1l-1.44.31a5 5 0 0 1 -1.1.06zm-4-9 1 4.5a3.13 3.13 0 0 0 3.72 2.4l1.44-.31a3.13 3.13 0 0 0 2.4-3.72l-1-4.5z" fill="#093f68"/><ellipse cx="144.07" cy="126.75" fill="#ffc9b0" rx="7.29" ry="8.15" transform="matrix(.97745276 -.2111542 .2111542 .97745276 -23.52 33.29)"/><path d="m144.39 135.87a8 8 0 0 1 -4.73-1.59 9.83 9.83 0 0 1 -2.72-12.57 7.77 7.77 0 0 1 11.54-2.49 9.59 9.59 0 0 1 3.69 5.78 9.57 9.57 0 0 1 -1 6.79 7.89 7.89 0 0 1 -5.2 3.9 7.43 7.43 0 0 1 -1.58.18zm-.65-16.23a5.68 5.68 0 0 0 -5.06 3.06 7.85 7.85 0 0 0 2.15 10 5.77 5.77 0 0 0 8.63-1.86 7.59 7.59 0 0 0 .76-5.38 7.6 7.6 0 0 0 -2.92-4.58 6.05 6.05 0 0 0 -3.56-1.24z" fill="#093f68"/><path d="m84.27 112.61c1.26 8.06 3.73 22.2 7.81 28.94 7 11.6 20.81 21 33.07 18.38a25.63 25.63 0 0 0 20-19.48 31.39 31.39 0 0 0 .07-14s.13-3.45-3.28-16.05-5.34-19.15-30.63-17.79c-19.5.99-28.31 11.95-27.04 20z" fill="#ffc9b0"/><path d="m121.08 161.34c-9.64 0-21.9-6.1-29.86-19.28-3-5.05-5.65-14.63-7.94-29.29-.55-3.58.67-7.45 3.46-10.88s9.83-9.55 24.53-10.33c26.22-1.41 28.27 6.09 31.64 18.53 3.09 11.39 3.31 15.42 3.32 16.21a32.47 32.47 0 0 1 -.1 14.39 26.68 26.68 0 0 1 -20.77 20.21 20.29 20.29 0 0 1 -4.28.44zm-35.82-48.88c.83 5.29 3.34 21.4 7.67 28.57 6.43 10.65 19.83 20.55 32 17.92a24.74 24.74 0 0 0 19.25-18.74 30.57 30.57 0 0 0 .06-13.6 2 2 0 0 1 0-.25s.05-3.6-3.25-15.75-5-18.37-29.61-17.06c-10.16.55-18.58 4-23.08 9.6-2.42 3-3.5 6.29-3 9.31z" fill="#093f68"/><path d="m133.37 136.39c-3.41-.41-8 .86-12.11 4.11-5.39 4.29-3.36 9.56-8.45 8.95a16.88 16.88 0 0 1 -9.73-4.46c-3.33-3.32-3.66-8.64-4.76-13a13.22 13.22 0 0 0 -1.72-4.46 6.69 6.69 0 0 0 -6.84-2.58c-8.85 2.09-2.93 13.42-1.17 18.56l3.84-.83.57 3.12a29.93 29.93 0 0 0 32.15 14.13 25.63 25.63 0 0 0 20-19.48 30.67 30.67 0 0 1 -3.47 1.19c-3.38.86-2.26-2.45-5.52-4.36a7.21 7.21 0 0 0 -2.79-.89z" fill="#725858"/><path d="m118.71 161.62a30.92 30.92 0 0 1 -26.57-15.3 1.4 1.4 0 0 1 -.14-.32l-.38-2.14-2.83.62a1 1 0 0 1 -1.16-.66c-.23-.68-.54-1.48-.88-2.35-1.68-4.33-4-10.26-1.93-14.18a6.76 6.76 0 0 1 4.7-3.33 7.67 7.67 0 0 1 7.88 3 13.83 13.83 0 0 1 1.88 4.79c.25 1 .46 2 .67 3.05.71 3.51 1.44 7.14 3.83 9.51a15.89 15.89 0 0 0 9.14 4.18c2.07.24 2.42-.54 3.33-2.63a14.51 14.51 0 0 1 4.38-6.11c4-3.19 8.82-4.81 12.85-4.32a8.37 8.37 0 0 1 3.19 1 7.42 7.42 0 0 1 2.86 3.2c.63 1.15.74 1.36 1.9 1.06a27 27 0 0 0 3.35-1.15 1 1 0 0 1 1 .17 1 1 0 0 1 .31 1 26.68 26.68 0 0 1 -20.77 20.22 31 31 0 0 1 -6.61.69zm-24.71-16.18a28.84 28.84 0 0 0 31 13.51 24.7 24.7 0 0 0 18.73-16.87c-.65.23-1.23.4-1.74.53-2.67.68-3.49-.83-4.15-2.05a5.4 5.4 0 0 0 -2.11-2.42 6.32 6.32 0 0 0 -2.42-.75c-3.47-.42-7.82 1.07-11.37 3.89a12.45 12.45 0 0 0 -3.78 5.35c-.92 2.09-1.85 4.24-5.41 3.81a17.81 17.81 0 0 1 -10.31-4.74c-2.82-2.8-3.61-6.73-4.38-10.53-.21-1-.41-2-.65-3a12.1 12.1 0 0 0 -1.57-4.13 5.71 5.71 0 0 0 -5.84-2.15 4.78 4.78 0 0 0 -3.4 2.31c-1.63 3.11.57 8.78 2 12.53.22.56.43 1.09.61 1.59l3-.65a1 1 0 0 1 1.2.8z" fill="#093f68"/><ellipse cx="115.05" cy="126.06" fill="#093f68" rx="2.64" ry="2.63" transform="matrix(.97745276 -.2111542 .2111542 .97745276 -24.03 27.15)"/><circle cx="135.61" cy="120.52" fill="#093f68" r="2.64"/><path d="m124.25 132.62a1 1 0 0 1 -.09-2 25.35 25.35 0 0 0 5.77-1.22c-.16-.83-2.12-3.13-4.3-5a1 1 0 1 1 1.32-1.51c1.6 1.4 5.31 4.88 5 7a1.79 1.79 0 0 1 -1.15 1.38 26.91 26.91 0 0 1 -6.42 1.39z" fill="#093f68"/><path d="m105.3 122a1.84 1.84 0 0 1 -.33 0 2 2 0 0 1 -1.64-2.25c0-.21.84-5.11 6.79-6.34 5.64-1.16 8.31 1.2 8.6 1.47a2 2 0 0 1 -2.76 2.9s-1.49-1.18-5-.45c-3.1.64-3.6 2.81-3.64 3a2 2 0 0 1 -2.02 1.67z" fill="#093f68"/><path d="m130.93 115.59a2 2 0 0 1 -1.17-.39 2 2 0 0 1 -.45-2.77 11.63 11.63 0 0 1 7-4.25c4.09-.69 6.23 1.3 6.85 2.58l-3.6 1.74a.29.29 0 0 0 .06.1s-.58-.82-2.64-.47a7.61 7.61 0 0 0 -4.46 2.65 2 2 0 0 1 -1.59.81z" fill="#093f68"/><path d="m94 132.38s-7.8-3.24-10.15 3.62 3.41 16.44 14 11z" fill="#ffc9b0"/><path d="m92 149.62a9.08 9.08 0 0 1 -6-2.23 11 11 0 0 1 -3-11.71 7.06 7.06 0 0 1 3.77-4.4c3.47-1.56 7.57.11 7.74.18a1 1 0 0 1 .59.67l3.84 14.61a1 1 0 0 1 -.51 1.15 14.05 14.05 0 0 1 -6.43 1.73zm-1.94-17a6.23 6.23 0 0 0 -2.53.49 5.1 5.1 0 0 0 -2.69 3.22 9.11 9.11 0 0 0 2.42 9.55c2.4 2.08 5.75 2.28 9.48.57l-3.49-13.3a10.7 10.7 0 0 0 -3.25-.53z" fill="#093f68"/><path d="m124.81 145.46 9.58-2.19s.83 8-3 9.39-6.58-7.2-6.58-7.2z" fill="#fff"/><path d="m130.53 153.8a3.61 3.61 0 0 1 -1.64-.4c-3-1.52-4.84-7-5-7.64a1 1 0 0 1 .09-.8 1 1 0 0 1 .64-.47l9.59-2.2a1 1 0 0 1 .8.16 1 1 0 0 1 .41.71c.1.91.79 8.87-3.69 10.44a3.33 3.33 0 0 1 -1.2.2zm-4.4-7.61c.7 1.8 2.07 4.63 3.66 5.42a1.51 1.51 0 0 0 1.24.11c2.13-.75 2.49-4.82 2.43-7.22z" fill="#093f68"/><path d="m149 194a1 1 0 0 1 -1-1v-17.83a1 1 0 1 1 2 0v17.83a1 1 0 0 1 -1 1z" fill="#093f68"/><path d="m111.89 99.15a15.09 15.09 0 0 1 -.43 12.29 22.38 22.38 0 0 0 16.6-16.24 26.55 26.55 0 0 1 4.68 10.55c5.13-.76 10.76-3.83 11.29-9 .37-3.56-2-7-5-8.86s-6.73-2.44-10.31-2.72a78.15 78.15 0 0 0 -36 5.7c-4.25 1.77-8.62 4.19-10.59 8.34-1.77 3.74-1.25 8.11-.63 12.19.52 3.41 1.23 11.33 4.92 13 3.31 1.52 7.84-2.5 10.28-4.38a46.24 46.24 0 0 0 9.22-9.47c1.25-1.73 6.88-9.2 5.97-11.4z" fill="#725858"/><path d="m88 125.76a4.84 4.84 0 0 1 -2-.43c-3.82-1.76-4.76-8.57-5.33-12.65-.06-.41-.11-.79-.16-1.13-.68-4.5-1.14-8.86.72-12.76 2.21-4.67 7.1-7.18 11.11-8.84a79.19 79.19 0 0 1 36.44-5.78c3.44.27 7.41.83 10.75 2.86 3.73 2.27 5.9 6.13 5.52 9.83-.59 5.66-6.52 9-12.14 9.88a1 1 0 0 1 -1.13-.79 25.66 25.66 0 0 0 -3.34-8.44 23.39 23.39 0 0 1 -16.75 14.9 1 1 0 0 1 -1-.36 1 1 0 0 1 -.11-1.06 14.09 14.09 0 0 0 1.34-7.8 57.57 57.57 0 0 1 -4.9 7.57l-.29.39a47 47 0 0 1 -9.42 9.69l-.76.59c-2.29 1.79-5.55 4.33-8.55 4.33zm34.58-39.83a77.16 77.16 0 0 0 -29.5 5.86c-3.68 1.53-8.15 3.81-10.08 7.85-1.61 3.39-1.17 7.43-.54 11.61 0 .34.11.73.16 1.16.48 3.42 1.37 9.8 4.19 11.1 2.43 1.12 6.21-1.87 8.47-3.65l.78-.61a45 45 0 0 0 9-9.27l.29-.4c5.77-7.89 5.74-9.68 5.59-10a1 1 0 0 1 .54-1.3 1 1 0 0 1 1.31.54 16.08 16.08 0 0 1 .33 11.17 21.32 21.32 0 0 0 13.94-15 1 1 0 0 1 1.78-.36 27.59 27.59 0 0 1 4.64 10c4.45-.91 9.08-3.67 9.53-7.95.34-3.33-2-6.38-4.57-7.91-3-1.82-6.66-2.32-9.87-2.58-1.96-.19-3.97-.26-5.98-.26z" fill="#093f68"/><rect fill="#ffbc0e" height="5.64" rx="2.01" transform="matrix(.99697187 -.0777631 .0777631 .99697187 -12.91 10.42)" width="6.68" x="124.09" y="168.17"/><path d="m126.16 174.91a3 3 0 0 1 -3-2.77l-.13-1.62a3 3 0 0 1 2.76-3.23l2.66-.21a3 3 0 0 1 3.23 2.76l.13 1.63a3 3 0 0 1 -2.76 3.23l-2.66.21zm2.56-5.84h-.08l-2.66.21a1 1 0 0 0 -.93 1.08l.13 1.63a1 1 0 0 0 1.08.92l2.66-.21a1 1 0 0 0 .93-1.08l-.15-1.62a1 1 0 0 0 -1-.93z" fill="#093f68"/><path d="m126.32 173.91-2.71 27.91 7.3 5.08 4.95-6.04-6.88-27.16z" fill="#ffbc0e"/><path d="m130.91 207.9a1 1 0 0 1 -.58-.18l-7.33-5.08a1 1 0 0 1 -.42-.92l2.7-27.91a1 1 0 0 1 .92-.9l2.66-.21a1 1 0 0 1 1 .76l6.88 27.16a1 1 0 0 1 -.2.88l-4.95 6a1 1 0 0 1 -.68.4zm-6.24-6.57 6 4.22 4.05-4.93-6.55-25.86-1 .08z" fill="#093f68"/><path d="m94.06 177.03h16.06v7.05h-16.06z" fill="#fff" transform="matrix(.97468321 -.22359036 .22359036 .97468321 -37.78 27.39)"/><path d="m95.05 186.78a1 1 0 0 1 -.53-.15 1 1 0 0 1 -.44-.62l-1.58-6.88a1 1 0 0 1 .75-1.19l15.66-3.59a1 1 0 0 1 .75.12 1 1 0 0 1 .45.63l1.57 6.87a1 1 0 0 1 -.75 1.2l-15.65 3.59a.9.9 0 0 1 -.23.02zm-.38-7.12 1.13 4.93 13.71-3.15-1.13-4.92z" fill="#093f68"/><rect fill="#ffc9b0" height="4.23" rx="1.95" transform="matrix(.96004985 -.27982901 .27982901 .96004985 -51.67 33.35)" width="11.98" x="85.02" y="195.6"/><path d="m87.17 202a3 3 0 0 1 -2.83-2.13l-.09-.32a2.94 2.94 0 0 1 2-3.65l7.75-2.31a3 3 0 0 1 3.66 2l.09.31a3 3 0 0 1 -2 3.66l-7.75 2.27a3 3 0 0 1 -.83.17zm7.67-6.48a.84.84 0 0 0 -.27 0l-7.76 2.26a.93.93 0 0 0 -.56.45 1 1 0 0 0 -.08.73l.09.31a1 1 0 0 0 1.18.65l7.75-2.26a.91.91 0 0 0 .57-.46 1 1 0 0 0 .08-.72l-.09-.31a1 1 0 0 0 -.46-.57.92.92 0 0 0 -.45-.13z" fill="#093f68"/><rect fill="#ffc9b0" height="4.23" rx="1.95" transform="matrix(.96004985 -.27982901 .27982901 .96004985 -52.76 33.84)" width="11.98" x="86.2" y="199.65"/><path d="m88.35 206a3 3 0 0 1 -2.83-2.12l-.09-.32a2.95 2.95 0 0 1 2-3.65l7.75-2.26a3 3 0 0 1 3.66 2l.09.32a3 3 0 0 1 -2 3.66l-7.75 2.26a2.91 2.91 0 0 1 -.83.11zm7.65-6.47a.84.84 0 0 0 -.27 0l-7.73 2.3a.92.92 0 0 0 -.57.45 1 1 0 0 0 -.08.72l.09.32a1 1 0 0 0 .46.57 1 1 0 0 0 .72.08l7.76-2.26a1 1 0 0 0 .64-1.18l-.09-.32a1 1 0 0 0 -.93-.68z" fill="#093f68"/><rect fill="#ffc9b0" height="4.23" rx="1.95" transform="matrix(.96 -.28 .28 .96 -53.85 34.34)" width="11.98" x="87.38" y="203.71"/><path d="m89.53 210.06a2.93 2.93 0 0 1 -2.82-2.12l-.1-.32a3 3 0 0 1 2-3.65l7.76-2.26a2.93 2.93 0 0 1 3.65 2l.09.32a2.94 2.94 0 0 1 -2 3.65l-7.76 2.26a2.92 2.92 0 0 1 -.82.12zm7.67-6.47a.75.75 0 0 0 -.26 0l-7.76 2.26a1 1 0 0 0 -.65 1.17l.1.32a.93.93 0 0 0 .45.56.91.91 0 0 0 .72.08l7.76-2.26a.94.94 0 0 0 .64-1.17l-.09-.32a1 1 0 0 0 -.45-.57 1.07 1.07 0 0 0 -.46-.07z" fill="#093f68"/><rect fill="#ffc9b0" height="4.23" rx="1.95" transform="matrix(.96004985 -.27982901 .27982901 .96004985 -54.94 34.83)" width="11.98" x="88.56" y="207.77"/><path d="m90.71 214.12a2.93 2.93 0 0 1 -2.82-2.12l-.09-.32a3 3 0 0 1 2-3.66l7.76-2.26a2.95 2.95 0 0 1 3.65 2l.1.32a2.95 2.95 0 0 1 -2 3.65l-7.77 2.27a2.92 2.92 0 0 1 -.83.12zm7.67-6.47h-.26l-7.76 2.26a1 1 0 0 0 -.64 1.18l.09.31a.92.92 0 0 0 .45.57 1 1 0 0 0 .72.08l7.76-2.26a.94.94 0 0 0 .65-1.17l-.1-.32a1 1 0 0 0 -.45-.57 1 1 0 0 0 -.46-.08z" fill="#093f68"/><g fill="#dfeaef"><path d="m206.76 102.46h-17.61a1 1 0 0 1 0-2h17.61a1 1 0 0 1 0 2z"/><path d="m206.76 111h-17.61a1 1 0 0 1 0-2h17.61a1 1 0 0 1 0 2z"/><path d="m199.27 119.58h-10.12a1 1 0 0 1 0-2h10.12a1 1 0 0 1 0 2z"/><path d="m307.05 126.39h-17.18a1 1 0 0 1 0-2h17.18a1 1 0 0 1 0 2z"/><path d="m307.05 132.59h-17.18a1 1 0 0 1 0-2h17.18a1 1 0 0 1 0 2z"/><path d="m298.46 138.79h-8.59a1 1 0 0 1 0-2h8.59a1 1 0 0 1 0 2z"/><path d="m295.43 95.51h-14.71a1 1 0 0 1 0-2h14.71a1 1 0 0 1 0 2z"/><path d="m290.43 102.46h-9.71a1 1 0 0 1 0-2h9.71a1 1 0 0 1 0 2z"/></g></svg>